<svg width="32" height="33" viewBox="0 0 32 33" fill="none" xmlns="http://www.w3.org/2000/svg">
<path d="M12.6667 28.1999H6.66669V23.8476C6.66669 21.5977 6.66669 20.4728 7.23964 19.6842C7.42467 19.4295 7.64865 19.2056 7.90333 19.0205C8.69193 18.4476 9.81685 18.4476 12.0667 18.4476H12.6667V18.3333C12.6667 15.841 12.6667 14.5948 13.2026 13.6666C13.5537 13.0585 14.0586 12.5536 14.6667 12.2025C15.5949 11.6666 16.841 11.6666 19.3334 11.6666V7.19995C19.3334 5.5431 20.6765 4.19995 22.3334 4.19995C23.9902 4.19995 25.3334 5.5431 25.3334 7.19995V28.1999H19.3334H12.6667Z" fill="white"/>
<path fill-rule="evenodd" clip-rule="evenodd" d="M22.3333 4.94995C21.0907 4.94995 20.0833 5.95731 20.0833 7.19995V27.4499H24.5833V7.19995C24.5833 5.95731 23.576 4.94995 22.3333 4.94995ZM26.0833 27.4499V7.19995C26.0833 5.12888 24.4044 3.44995 22.3333 3.44995C20.2623 3.44995 18.5833 5.12889 18.5833 7.19995V10.9172C17.6963 10.9195 16.961 10.9309 16.3458 10.9867C15.5546 11.0584 14.8889 11.2082 14.2917 11.553C13.5696 11.9699 12.9699 12.5695 12.553 13.2916C12.2082 13.8889 12.0584 14.5546 11.9867 15.3457C11.9286 15.9871 11.9187 16.7592 11.917 17.6976C10.8779 17.6976 10.0348 17.7 9.35624 17.7736C8.63139 17.8521 8.00593 18.0189 7.46247 18.4138C7.14412 18.6451 6.86415 18.925 6.63285 19.2434C6.23801 19.7868 6.07118 20.4123 5.99265 21.1371C5.91664 21.8387 5.91665 22.7161 5.91667 23.8043L5.91667 27.4499H4C3.58579 27.4499 3.25 27.7857 3.25 28.1999C3.25 28.6142 3.58579 28.9499 4 28.9499H28C28.4142 28.9499 28.75 28.6142 28.75 28.1999C28.75 27.7857 28.4142 27.4499 28 27.4499H26.0833ZM7.41667 27.4499H11.9167V19.1976C10.8547 19.1978 10.1019 19.2015 9.51781 19.2648C8.92059 19.3295 8.58929 19.4492 8.34415 19.6273C8.15314 19.7661 7.98516 19.934 7.84638 20.1251C7.66827 20.3702 7.54863 20.7015 7.48392 21.2987C7.4177 21.91 7.41667 22.7059 7.41667 23.8476V27.4499ZM13.4167 27.4499H18.5833V12.4173C17.7047 12.4197 17.0315 12.4307 16.4812 12.4805C15.7941 12.5428 15.3726 12.661 15.0417 12.852C14.5476 13.1373 14.1373 13.5476 13.8521 14.0416C13.661 14.3725 13.5429 14.794 13.4806 15.4811C13.4174 16.1785 13.4167 17.0733 13.4167 18.3333V27.4499Z" fill="white"/>
</svg>
