<svg width="533" height="261" viewBox="0 0 533 261" fill="none" xmlns="http://www.w3.org/2000/svg">
<g filter="url(#filter0_b_1_160)">
<path d="M83.295 35.5019C90.2152 16.4889 112.227 1.07581 132.461 1.07581H494.237C514.47 1.07581 525.262 16.4889 518.342 35.5019L449.427 224.846C442.507 243.859 420.494 259.272 400.261 259.272H38.485C18.2517 259.272 7.45932 243.859 14.3795 224.846L83.295 35.5019Z" fill="white" fill-opacity="0.1"/>
</g>
<g filter="url(#filter1_b_1_160)">
<path fill-rule="evenodd" clip-rule="evenodd" d="M82.1502 35.5019C89.2866 15.8948 111.987 0 132.852 0H494.628C515.494 0 526.624 15.8948 519.487 35.502L450.572 224.846C443.435 244.453 420.735 260.348 399.87 260.348H38.0934C17.2278 260.348 6.09819 244.453 13.2346 224.846L82.1502 35.5019ZM132.069 2.15163C112.468 2.15163 91.1438 17.0831 84.4399 35.5019L15.5244 224.846C8.82043 243.265 19.2756 258.196 38.8765 258.196H400.653C420.254 258.196 441.578 243.265 448.282 224.846L517.197 35.502C523.901 17.0831 513.446 2.15163 493.845 2.15163H132.069Z" fill="url(#paint0_linear_1_160)" fill-opacity="0.5"/>
</g>
<path d="M111.586 193.499C110.112 193.499 109.107 193.148 108.572 192.445C108.037 191.742 108.007 190.738 108.482 189.433C108.943 188.168 109.668 187.174 110.658 186.451C111.658 185.728 112.794 185.366 114.066 185.366C115.295 185.366 116.121 185.708 116.546 186.39C116.971 187.073 116.955 188.042 116.498 189.297C116.447 189.438 116.385 189.593 116.312 189.764C116.239 189.935 116.183 190.06 116.143 190.141H109.315L109.803 188.8H115.124L114.687 189.207C114.987 188.384 115.037 187.776 114.838 187.384C114.653 186.983 114.224 186.782 113.55 186.782C112.834 186.782 112.213 186.993 111.685 187.415C111.172 187.826 110.768 188.439 110.472 189.252L110.28 189.779C110.002 190.542 110.009 191.11 110.301 191.481C110.597 191.843 111.178 192.023 112.043 192.023C112.492 192.023 112.988 191.983 113.53 191.903C114.076 191.813 114.572 191.697 115.018 191.556L114.732 193.002C114.272 193.153 113.763 193.273 113.206 193.364C112.65 193.454 112.11 193.499 111.586 193.499Z" fill="#EDEDED"/>
<path d="M93.7192 193.349L96.5698 185.517H98.397L98.0946 186.436H98.1267C98.5501 186.094 99.0031 185.833 99.4856 185.652C99.9718 185.462 100.493 185.366 101.048 185.366C101.593 185.366 102.018 185.462 102.323 185.652C102.641 185.833 102.819 186.094 102.855 186.436H102.887C103.343 186.064 103.81 185.793 104.289 185.622C104.768 185.452 105.29 185.366 105.857 185.366C106.754 185.366 107.324 185.592 107.565 186.044C107.811 186.486 107.76 187.184 107.413 188.138L105.516 193.349H103.608L105.341 188.589C105.556 187.997 105.612 187.565 105.508 187.294C105.403 187.023 105.127 186.887 104.678 186.887C104.144 186.887 103.661 187.053 103.231 187.384C102.8 187.716 102.485 188.158 102.284 188.71L100.595 193.349H98.6718L100.453 188.454C100.64 187.942 100.668 187.555 100.539 187.294C100.413 187.023 100.142 186.887 99.7253 186.887C99.4047 186.887 99.0816 186.968 98.756 187.128C98.4411 187.289 98.1542 187.505 97.8952 187.776C97.647 188.047 97.4589 188.358 97.331 188.71L95.6425 193.349H93.7192Z" fill="#EDEDED"/>
<path d="M86.7299 193.499C85.8965 193.499 85.3161 193.289 84.9887 192.867C84.6757 192.435 84.6526 191.853 84.9194 191.12C85.252 190.206 85.8871 189.503 86.8249 189.011C87.7626 188.519 88.9314 188.273 90.3311 188.273H91.5012C91.6401 187.892 91.6926 187.6 91.6589 187.4C91.6394 187.189 91.5215 187.043 91.3049 186.963C91.0991 186.882 90.7771 186.842 90.339 186.842C89.8048 186.842 89.2308 186.892 88.6173 186.993C88.0144 187.093 87.4253 187.244 86.85 187.445L87.1253 185.984C87.7397 185.793 88.3983 185.642 89.1009 185.532C89.8036 185.421 90.4862 185.366 91.1487 185.366C91.9929 185.366 92.6206 185.462 93.032 185.652C93.4541 185.843 93.6898 186.164 93.7391 186.616C93.7883 187.068 93.6777 187.666 93.4073 188.409L91.6092 193.349H89.7339L90.0468 192.445H90.0147C89.6129 192.756 89.103 193.012 88.485 193.213C87.8706 193.404 87.2856 193.499 86.7299 193.499ZM87.9614 192.053C88.3568 192.053 88.7439 191.988 89.1226 191.858C89.505 191.717 89.8344 191.531 90.1108 191.3C90.3872 191.069 90.5784 190.808 90.6844 190.517L91.0297 189.568H90.1482C89.2293 189.568 88.4927 189.684 87.9385 189.915C87.3986 190.136 87.0446 190.477 86.8765 190.939C86.7522 191.28 86.7818 191.551 86.9651 191.752C87.1485 191.953 87.4806 192.053 87.9614 192.053Z" fill="#EDEDED"/>
<path d="M72.9358 193.349L76.9376 182.354H79.0693L81.4379 190.246H81.47L84.3425 182.354H86.33L82.3282 193.349H80.1965L77.8438 185.457H77.8118L74.9393 193.349H72.9358Z" fill="#EDEDED"/>
<path d="M220.296 108.359L221.069 106.235H223.345L222.572 108.359H220.296Z" fill="#EDEDED"/>
<path d="M214.451 108.509C213.104 108.509 212.19 108.158 211.709 107.455C211.242 106.742 211.244 105.738 211.715 104.442C212.187 103.147 212.914 102.148 213.896 101.445C214.893 100.732 216.065 100.376 217.411 100.376C218.757 100.376 219.669 100.732 220.147 101.445C220.629 102.148 220.634 103.147 220.162 104.442C219.691 105.738 218.957 106.742 217.96 107.455C216.967 108.158 215.797 108.509 214.451 108.509ZM214.988 107.033C215.725 107.033 216.365 106.817 216.907 106.385C217.452 105.944 217.88 105.296 218.191 104.442C218.501 103.589 218.543 102.946 218.315 102.515C218.092 102.073 217.611 101.852 216.874 101.852C216.147 101.852 215.506 102.073 214.95 102.515C214.408 102.946 213.982 103.589 213.671 104.442C213.36 105.296 213.317 105.944 213.541 106.385C213.779 106.817 214.261 107.033 214.988 107.033Z" fill="#EDEDED"/>
<path d="M199.006 108.358L203.007 97.3636H205.139L207.508 105.256H207.54L210.412 97.3636H212.4L208.398 108.358H206.266L203.914 100.466H203.882L201.009 108.358H199.006Z" fill="#EDEDED"/>
<path d="M187.387 108.509C186.276 108.509 185.54 108.153 185.18 107.44C184.82 106.727 184.873 105.728 185.341 104.443C185.809 103.157 186.482 102.158 187.362 101.445C188.241 100.732 189.236 100.376 190.347 100.376C190.903 100.376 191.372 100.466 191.755 100.647C192.138 100.828 192.421 101.094 192.603 101.445H192.651L194.137 97.3636H196.076L192.074 108.358H190.231L190.533 107.44H190.501C190.067 107.781 189.575 108.047 189.025 108.238C188.489 108.419 187.943 108.509 187.387 108.509ZM188.448 107.003C188.865 107.003 189.263 106.923 189.642 106.762C190.032 106.601 190.374 106.38 190.669 106.099C190.963 105.818 191.174 105.502 191.302 105.15L191.818 103.735C191.949 103.373 191.968 103.057 191.875 102.786C191.785 102.505 191.608 102.284 191.346 102.123C191.084 101.962 190.74 101.882 190.312 101.882C189.639 101.882 189.035 102.103 188.5 102.545C187.976 102.987 187.564 103.619 187.265 104.443C186.965 105.266 186.916 105.898 187.119 106.34C187.332 106.782 187.775 107.003 188.448 107.003Z" fill="#EDEDED"/>
<path d="M177.903 108.358L180.754 100.526H182.645L182.124 102.002H182.156C182.558 101.661 182.99 101.37 183.452 101.129C183.928 100.878 184.417 100.692 184.921 100.572C185.428 100.441 185.932 100.376 186.434 100.376L185.853 101.972C185.18 101.972 184.522 102.093 183.879 102.334C183.246 102.575 182.689 102.901 182.208 103.313C181.741 103.714 181.416 104.166 181.234 104.668L179.891 108.358H177.903Z" fill="#EDEDED"/>
<path d="M170.914 108.509C170.081 108.509 169.5 108.298 169.173 107.876C168.86 107.445 168.837 106.862 169.103 106.129C169.436 105.216 170.071 104.513 171.009 104.021C171.947 103.529 173.115 103.283 174.515 103.283H175.685C175.824 102.901 175.877 102.61 175.843 102.409C175.824 102.198 175.706 102.053 175.489 101.972C175.283 101.892 174.961 101.852 174.523 101.852C173.989 101.852 173.415 101.902 172.801 102.002C172.198 102.103 171.609 102.254 171.034 102.454L171.309 100.993C171.924 100.803 172.582 100.652 173.285 100.542C173.988 100.431 174.67 100.376 175.333 100.376C176.177 100.376 176.805 100.471 177.216 100.662C177.638 100.853 177.874 101.174 177.923 101.626C177.972 102.078 177.862 102.675 177.591 103.418L175.793 108.358H173.918L174.231 107.455H174.199C173.797 107.766 173.287 108.022 172.669 108.223C172.055 108.414 171.47 108.509 170.914 108.509ZM172.146 107.063C172.541 107.063 172.928 106.998 173.307 106.867C173.689 106.727 174.019 106.541 174.295 106.31C174.571 106.079 174.762 105.818 174.868 105.527L175.214 104.578H174.332C173.413 104.578 172.677 104.693 172.123 104.924C171.583 105.145 171.229 105.487 171.061 105.949C170.936 106.29 170.966 106.561 171.149 106.762C171.333 106.963 171.665 107.063 172.146 107.063Z" fill="#EDEDED"/>
<path d="M163.204 108.509C161.932 108.509 160.919 108.283 160.165 107.831C159.41 107.379 158.941 106.732 158.756 105.888C158.583 105.045 158.709 104.036 159.137 102.861C159.568 101.676 160.176 100.667 160.96 99.8337C161.759 98.9903 162.7 98.3426 163.783 97.8908C164.866 97.4389 166.044 97.213 167.315 97.213C168.769 97.213 169.948 97.5092 170.855 98.1016L169.787 99.7584C168.909 99.176 167.904 98.8848 166.771 98.8848C165.927 98.8848 165.137 99.0455 164.4 99.3668C163.667 99.6781 163.027 100.13 162.48 100.722C161.933 101.315 161.508 102.028 161.205 102.861C160.905 103.684 160.811 104.397 160.923 105C161.039 105.592 161.348 106.049 161.851 106.37C162.357 106.682 163.032 106.837 163.877 106.837C164.977 106.837 166.194 106.546 167.528 105.964L167.39 107.62C166.053 108.213 164.657 108.509 163.204 108.509Z" fill="#EDEDED"/>
<path d="M149.183 108.509C148.2 108.509 147.559 108.318 147.259 107.937C146.96 107.555 146.968 106.933 147.282 106.069L148.762 102.003H146.903L147.44 100.527H149.299L150.231 97.9661H152.219L151.287 100.527H154.092L153.555 102.003H150.75L149.439 105.602C149.257 106.104 149.214 106.456 149.312 106.657C149.424 106.847 149.705 106.943 150.154 106.943C150.389 106.943 150.642 106.923 150.913 106.882C151.184 106.842 151.434 106.787 151.662 106.717L151.285 108.238C150.885 108.338 150.518 108.409 150.183 108.449C149.847 108.489 149.514 108.509 149.183 108.509Z" fill="#EDEDED"/>
<path d="M144.384 99.1409L145.031 97.3636H147.018L146.372 99.1409H144.384ZM141.029 108.358L143.863 100.572H145.851L143.017 108.358H141.029Z" fill="#EDEDED"/>
<path d="M133.856 108.509C132.745 108.509 132.009 108.153 131.649 107.44C131.288 106.727 131.342 105.728 131.81 104.443C132.278 103.157 132.951 102.158 133.831 101.445C134.71 100.732 135.705 100.376 136.816 100.376C137.372 100.376 137.841 100.466 138.224 100.647C138.607 100.828 138.89 101.094 139.072 101.445H139.12L140.605 97.3636H142.545L138.543 108.358H136.7L137.002 107.44H136.97C136.536 107.781 136.044 108.047 135.493 108.238C134.957 108.419 134.412 108.509 133.856 108.509ZM134.917 107.003C135.334 107.003 135.732 106.923 136.111 106.762C136.5 106.601 136.843 106.38 137.137 106.099C137.432 105.818 137.643 105.502 137.771 105.15L138.287 103.735C138.418 103.373 138.437 103.057 138.343 102.786C138.253 102.505 138.077 102.284 137.815 102.123C137.553 101.962 137.208 101.882 136.781 101.882C136.108 101.882 135.504 102.103 134.969 102.545C134.445 102.987 134.033 103.619 133.733 104.443C133.434 105.266 133.385 105.898 133.588 106.34C133.801 106.782 134.244 107.003 134.917 107.003Z" fill="#EDEDED"/>
<path d="M125.71 108.509C124.236 108.509 123.231 108.158 122.696 107.455C122.161 106.752 122.131 105.748 122.606 104.442C123.067 103.177 123.792 102.183 124.782 101.46C125.782 100.737 126.918 100.376 128.19 100.376C129.418 100.376 130.245 100.717 130.67 101.4C131.095 102.083 131.078 103.052 130.622 104.307C130.57 104.447 130.508 104.603 130.436 104.774C130.363 104.944 130.306 105.07 130.267 105.15H123.439L123.927 103.81H129.248L128.811 104.217C129.111 103.393 129.161 102.786 128.962 102.394C128.777 101.992 128.348 101.792 127.674 101.792C126.958 101.792 126.337 102.002 125.809 102.424C125.296 102.836 124.892 103.448 124.596 104.262L124.404 104.789C124.126 105.552 124.133 106.119 124.425 106.491C124.721 106.852 125.302 107.033 126.167 107.033C126.616 107.033 127.112 106.993 127.654 106.913C128.2 106.822 128.696 106.707 129.142 106.566L128.856 108.012C128.396 108.163 127.887 108.283 127.33 108.373C126.774 108.464 126.234 108.509 125.71 108.509Z" fill="#EDEDED"/>
<path d="M115.168 108.358L118.019 100.526H119.91L119.389 102.002H119.421C119.823 101.661 120.255 101.37 120.717 101.129C121.193 100.878 121.683 100.692 122.186 100.572C122.693 100.441 123.197 100.376 123.7 100.376L123.119 101.972C122.445 101.972 121.787 102.093 121.144 102.334C120.511 102.575 119.954 102.901 119.473 103.313C119.006 103.714 118.682 104.166 118.499 104.668L117.156 108.358H115.168Z" fill="#EDEDED"/>
<path d="M109.297 108.509C108.026 108.509 107.013 108.283 106.258 107.831C105.504 107.379 105.034 106.732 104.85 105.888C104.676 105.045 104.803 104.036 105.23 102.861C105.661 101.676 106.269 100.667 107.053 99.8337C107.852 98.9903 108.793 98.3426 109.876 97.8908C110.96 97.4389 112.137 97.213 113.409 97.213C114.862 97.213 116.042 97.5092 116.948 98.1016L115.88 99.7584C115.002 99.176 113.997 98.8848 112.864 98.8848C112.02 98.8848 111.23 99.0455 110.493 99.3668C109.76 99.6781 109.12 100.13 108.573 100.722C108.026 101.315 107.601 102.028 107.298 102.861C106.998 103.684 106.904 104.397 107.016 105C107.132 105.592 107.441 106.049 107.944 106.37C108.45 106.682 109.126 106.837 109.97 106.837C111.07 106.837 112.288 106.546 113.622 105.964L113.483 107.62C112.146 108.213 110.75 108.509 109.297 108.509Z" fill="#EDEDED"/>
<path d="M243.795 189.045L244.568 186.921H246.844L246.071 189.045H243.795Z" fill="#EDEDED"/>
<path d="M241.607 181.062C242.718 181.062 243.454 181.419 243.814 182.132C244.175 182.845 244.121 183.844 243.653 185.129C243.185 186.414 242.512 187.413 241.633 188.126C240.753 188.839 239.758 189.196 238.647 189.196C238.102 189.196 237.632 189.105 237.239 188.925C236.859 188.734 236.577 188.468 236.391 188.126H236.359L234.874 192.208H232.902L236.904 181.213H238.779L238.461 182.132H238.493C238.941 181.78 239.434 181.514 239.97 181.334C240.506 181.153 241.051 181.062 241.607 181.062ZM240.546 182.569C240.14 182.569 239.742 182.649 239.352 182.81C238.963 182.97 238.62 183.191 238.326 183.472C238.045 183.743 237.839 184.06 237.708 184.421L237.193 185.837C237.065 186.188 237.04 186.505 237.12 186.786C237.21 187.067 237.391 187.288 237.664 187.449C237.937 187.609 238.276 187.69 238.682 187.69C239.366 187.69 239.97 187.469 240.494 187.027C241.018 186.585 241.43 185.952 241.73 185.129C242.029 184.306 242.078 183.673 241.875 183.231C241.673 182.79 241.23 182.569 240.546 182.569Z" fill="#EDEDED"/>
<path d="M224.427 189.045L228.508 185.099L227.309 181.213H229.489L230.189 184.135H230.221L233.047 181.213H235.227L231.2 185.099L232.409 189.045H230.229L229.514 186.078H229.482L226.623 189.045H224.427Z" fill="#EDEDED"/>
<path d="M215.321 189.045L219.322 178.05H227.144L226.552 179.677H220.734L219.703 182.508H225.201L224.62 184.105H219.122L217.916 187.418H223.734L223.142 189.045H215.321Z" fill="#EDEDED"/>
<path d="M242.252 219.44L245.024 211.823H244.997L240.77 213.773L240.788 212.365L245.682 210.016H247.427L243.997 219.44H242.252Z" fill="white"/>
<path d="M233.424 219.44L236.196 211.823H236.169L231.942 213.773L231.96 212.365L236.854 210.016H238.599L235.169 219.44H233.424Z" fill="white"/>
<path d="M221.738 219.956L230.434 209.5H232.11L223.414 219.956H221.738Z" fill="white"/>
<path d="M220.834 209.887C221.658 209.887 222.304 210.025 222.771 210.3C223.239 210.575 223.518 210.98 223.607 211.513C223.706 212.047 223.612 212.71 223.323 213.502C222.891 214.689 222.266 215.726 221.449 216.613C220.644 217.491 219.696 218.184 218.604 218.691C217.513 219.199 216.318 219.487 215.02 219.556L215.192 218.252C216.35 218.192 217.358 217.964 218.216 217.568C219.078 217.164 219.819 216.574 220.44 215.8L220.417 215.787C220.022 215.967 219.619 216.105 219.209 216.2C218.808 216.294 218.388 216.342 217.948 216.342C216.932 216.342 216.232 216.062 215.85 215.503C215.476 214.943 215.47 214.169 215.83 213.179C216.08 212.49 216.446 211.901 216.927 211.41C217.408 210.92 217.979 210.545 218.641 210.287C219.306 210.02 220.037 209.887 220.834 209.887ZM220.331 211.268C219.653 211.268 219.07 211.436 218.581 211.772C218.105 212.099 217.759 212.559 217.543 213.153C217.327 213.747 217.327 214.212 217.544 214.547C217.773 214.874 218.208 215.038 218.849 215.038C219.307 215.038 219.726 214.969 220.106 214.831C220.489 214.685 220.817 214.474 221.091 214.199C221.378 213.915 221.59 213.583 221.728 213.205C221.85 212.869 221.891 212.555 221.851 212.262C221.82 211.97 221.682 211.733 221.436 211.552C221.203 211.363 220.835 211.268 220.331 211.268Z" fill="white"/>
<path d="M208.482 219.569C207.144 219.569 206.295 219.173 205.933 218.381C205.571 217.59 205.689 216.372 206.287 214.728C206.885 213.084 207.654 211.866 208.592 211.075C209.531 210.283 210.668 209.887 212.006 209.887C213.343 209.887 214.188 210.283 214.541 211.075C214.903 211.866 214.785 213.084 214.187 214.728C213.588 216.372 212.82 217.59 211.881 218.381C210.952 219.173 209.819 219.569 208.482 219.569ZM209.003 218.136C209.763 218.136 210.418 217.861 210.966 217.31C211.515 216.759 212.002 215.899 212.428 214.728C212.857 213.549 212.996 212.688 212.846 212.146C212.698 211.595 212.244 211.32 211.484 211.32C210.724 211.32 210.065 211.595 209.507 212.146C208.962 212.688 208.475 213.549 208.045 214.728C207.619 215.899 207.48 216.759 207.628 217.31C207.784 217.861 208.243 218.136 209.003 218.136Z" fill="white"/>
<path d="M158.417 219.44L161.847 210.016H163.496L165.692 217.116H165.72L168.304 210.016H169.815L166.385 219.44H164.737L162.54 212.34H162.513L159.928 219.44H158.417Z" fill="white"/>
<path d="M147.728 219.44L154.812 210.016H156.859L157.07 219.44H155.408L155.401 211.229H155.374L149.39 219.44H147.728ZM150.484 217.078L150.953 215.787H156.518L156.048 217.078H150.484Z" fill="white"/>
<path d="M144.864 219.44L148.294 210.016H149.805L146.375 219.44H144.864ZM138.682 219.44L142.112 210.016H143.623L140.193 219.44H138.682ZM140.997 215.154L141.467 213.863H147.649L147.179 215.154H140.997Z" fill="white"/>
<path d="M134.66 219.44L138.09 210.016H139.656L136.226 219.44H134.66Z" fill="white"/>
<path d="M123.847 219.44L130.931 210.016H132.978L133.189 219.44H131.527L131.52 211.229H131.493L125.509 219.44H123.847ZM126.603 217.078L127.072 215.787H132.636L132.167 217.078H126.603Z" fill="white"/>
<path d="M115.364 219.44L118.794 210.016H121.817C123.291 210.016 124.286 210.24 124.801 210.687C125.325 211.135 125.41 211.845 125.056 212.817C124.708 213.773 124.118 214.487 123.287 214.96C122.464 215.434 121.384 215.67 120.047 215.67H117.492L117.943 214.431H120.278C121.212 214.431 121.93 214.311 122.429 214.07C122.942 213.82 123.298 213.42 123.498 212.869C123.699 212.318 123.632 211.922 123.299 211.681C122.977 211.432 122.35 211.307 121.415 211.307H119.835L116.875 219.44H115.364ZM121.23 219.44L118.252 215.128H120.162L123.195 219.44H121.23Z" fill="white"/>
<path d="M101.21 219.44L104.64 210.016H106.288L108.485 217.116H108.513L111.097 210.016H112.608L109.178 219.44H107.529L105.333 212.34H105.305L102.721 219.44H101.21Z" fill="white"/>
<path d="M90.5206 219.44L97.6051 210.016H99.6522L99.8627 219.44H98.2004L98.1938 211.229H98.1664L92.183 219.44H90.5206ZM93.2764 217.078L93.7463 215.787H99.3103L98.8404 217.078H93.2764Z" fill="white"/>
<path d="M87.6566 219.44L91.0867 210.016H92.5979L89.1678 219.44H87.6566ZM81.4744 219.44L84.9045 210.016H86.4157L82.9856 219.44H81.4744ZM83.79 215.154L84.2599 213.863H90.4421L89.9722 215.154H83.79Z" fill="white"/>
<path d="M72.7806 219.44L76.2107 210.016H82.8051L82.3446 211.281H77.2614L76.3123 213.889H81.1207L80.6696 215.128H75.8612L74.7523 218.175H79.8355L79.375 219.44H72.7806Z" fill="white"/>
<path d="M63.3087 219.44L66.7388 210.016H69.7612C71.2358 210.016 72.2305 210.24 72.7454 210.687C73.2694 211.135 73.3544 211.845 73.0004 212.817C72.6527 213.773 72.063 214.487 71.2313 214.96C70.4087 215.434 69.3288 215.67 67.9916 215.67H65.4363L65.8874 214.431H68.2229C69.1571 214.431 69.8741 214.311 70.374 214.07C70.8862 213.82 71.2425 213.42 71.443 212.869C71.6434 212.318 71.5769 211.922 71.2433 211.681C70.922 211.432 70.2942 211.307 69.36 211.307H67.7801L64.8199 219.44H63.3087ZM69.1749 219.44L66.1969 215.128H68.1066L71.1395 219.44H69.1749Z" fill="white"/>
<path fill-rule="evenodd" clip-rule="evenodd" d="M144.021 51.4636C147.612 49.1039 150.557 45.7184 151.926 41.9563C153.296 38.1942 152.815 34.8088 150.942 32.449C154.156 30.3369 157.89 29.0465 161.474 29.0465C169.061 29.0465 173.108 34.8266 170.513 41.9563C167.918 49.0861 159.664 54.8661 152.076 54.8661C148.493 54.8661 145.698 53.5757 144.021 51.4636ZM144.021 51.4636C140.807 53.5757 137.073 54.8661 133.489 54.8661C125.902 54.8661 121.855 49.0861 124.45 41.9563C127.045 34.8266 135.299 29.0465 142.887 29.0465C146.47 29.0465 149.265 30.3369 150.942 32.449C147.351 34.8088 144.406 38.1942 143.037 41.9563C141.667 45.7184 142.148 49.1039 144.021 51.4636Z" fill="white"/>
<path fill-rule="evenodd" clip-rule="evenodd" d="M483.18 29.2966C483.978 28.8659 484.819 29.0053 485.058 29.608C486.33 32.817 487.249 38.2902 485.884 44.3864C484.509 50.5244 480.789 57.3765 472.732 63.0735C471.986 63.6008 471.081 63.6063 470.709 63.086C470.337 62.5657 470.64 61.7164 471.386 61.1892C478.413 56.2205 481.687 50.2693 482.926 44.7363C484.175 39.1615 483.329 34.0958 482.168 31.1678C481.929 30.5651 482.382 29.7274 483.18 29.2966ZM475.203 34.2158C476 33.7842 476.842 33.9224 477.082 34.5244C477.983 36.7825 478.635 40.6233 477.676 44.9121C476.708 49.2433 474.068 54.1126 468.335 58.157C467.588 58.6834 466.683 58.6877 466.313 58.1665C465.942 57.6454 466.247 56.7961 466.993 56.2697C471.694 52.9533 473.886 48.9865 474.718 45.263C475.56 41.4972 474.982 38.0647 474.193 36.0874C473.953 35.4854 474.405 34.6474 475.203 34.2158ZM468.485 39.5846C469.282 39.1502 470.125 39.2843 470.369 39.8843C470.866 41.105 471.228 43.1656 470.713 45.4845C470.188 47.8474 468.724 50.5554 465.523 52.7967C464.775 53.3205 463.871 53.3205 463.504 52.7967C463.137 52.2729 463.447 51.4236 464.195 50.8998C466.357 49.3855 467.366 47.5853 467.754 45.8388C468.152 44.0481 467.867 42.3979 467.485 41.4577C467.241 40.8577 467.689 40.0191 468.485 39.5846ZM462.542 45.1419C462.016 45.1419 461.445 45.5422 461.265 46.0361C461.085 46.5299 461.365 46.9303 461.891 46.9303C462.416 46.9303 462.988 46.5299 463.168 46.0361C463.348 45.5422 463.067 45.1419 462.542 45.1419ZM458.41 46.0361C459.129 44.0607 461.416 42.4593 463.518 42.4593C465.62 42.4593 466.742 44.0607 466.023 46.0361C465.304 48.0115 463.017 49.6128 460.915 49.6128C458.812 49.6128 457.691 48.0115 458.41 46.0361Z" fill="white"/>
<path d="M333.796 143.316L338.221 131.159H338.175L331.873 135.01L333.158 131.482L339.513 127.609H342.81L337.093 143.316H333.796Z" fill="white"/>
<path d="M318.616 140.734C320.035 139.686 321.252 138.754 322.268 137.936C323.288 137.104 324.139 136.359 324.822 135.699C325.51 135.025 326.053 134.415 326.449 133.87C326.846 133.325 327.134 132.808 327.311 132.321C327.588 131.56 327.616 131.001 327.395 130.642C327.175 130.284 326.69 130.104 325.942 130.104C324.965 130.104 323.716 130.37 322.195 130.901L323.213 128.103C324.53 127.63 326.013 127.393 327.662 127.393C329.326 127.393 330.411 127.766 330.918 128.512C331.43 129.244 331.399 130.399 330.825 131.976C330.585 132.636 330.24 133.31 329.791 133.999C329.363 134.673 328.82 135.369 328.162 136.086C327.504 136.803 326.739 137.542 325.867 138.302C325.01 139.062 324.031 139.844 322.929 140.647L322.898 140.734H327.775L326.835 143.316H317.677L318.616 140.734Z" fill="white"/>
<path d="M313.282 136.516C312.793 136.516 312.454 136.38 312.263 136.108C312.072 135.835 312.058 135.476 312.22 135.032C312.387 134.573 312.662 134.214 313.046 133.956C313.435 133.683 313.874 133.547 314.363 133.547C314.851 133.547 315.191 133.683 315.382 133.956C315.578 134.214 315.592 134.573 315.425 135.032C315.263 135.476 314.988 135.835 314.599 136.108C314.209 136.38 313.77 136.516 313.282 136.516ZM310.729 143.531C309.462 143.531 308.541 143.294 307.965 142.821C307.394 142.333 307.14 141.544 307.201 140.454C307.262 139.364 307.621 137.915 308.279 136.108L308.749 134.817C309.412 132.995 310.107 131.546 310.834 130.47C311.567 129.38 312.393 128.598 313.314 128.125C314.239 127.637 315.335 127.393 316.602 127.393C317.854 127.393 318.765 127.637 319.336 128.125C319.927 128.598 320.192 129.38 320.131 130.47C320.075 131.546 319.716 132.995 319.052 134.817L318.583 136.108C317.925 137.915 317.23 139.364 316.497 140.454C315.764 141.544 314.928 142.333 313.987 142.821C313.067 143.294 311.981 143.531 310.729 143.531ZM311.7 140.863C312.219 140.863 312.655 140.734 313.009 140.475C313.362 140.217 313.713 139.737 314.06 139.034C314.428 138.317 314.863 137.269 315.364 135.892L315.677 135.032C316.178 133.655 316.503 132.615 316.652 131.912C316.822 131.195 316.824 130.707 316.658 130.449C316.493 130.191 316.15 130.061 315.631 130.061C315.128 130.061 314.691 130.191 314.323 130.449C313.969 130.707 313.608 131.195 313.241 131.912C312.893 132.615 312.469 133.655 311.968 135.032L311.654 135.892C311.153 137.269 310.818 138.317 310.648 139.034C310.499 139.737 310.508 140.217 310.673 140.475C310.854 140.734 311.196 140.863 311.7 140.863Z" fill="white"/>
<path d="M295.719 140.734C297.138 139.686 298.355 138.754 299.37 137.936C300.391 137.104 301.242 136.359 301.925 135.699C302.613 135.025 303.155 134.415 303.552 133.87C303.949 133.325 304.236 132.808 304.414 132.321C304.691 131.56 304.719 131.001 304.498 130.642C304.277 130.284 303.793 130.104 303.045 130.104C302.068 130.104 300.819 130.37 299.298 130.901L300.316 128.103C301.633 127.63 303.116 127.393 304.765 127.393C306.429 127.393 307.514 127.766 308.021 128.512C308.533 129.244 308.502 130.399 307.928 131.976C307.688 132.636 307.343 133.31 306.894 133.999C306.466 134.673 305.922 135.369 305.264 136.086C304.606 136.803 303.841 137.542 302.969 138.302C302.113 139.062 301.134 139.844 300.032 140.647L300.001 140.734H304.878L303.938 143.316H294.779L295.719 140.734Z" fill="white"/>
<path d="M270.808 127.393C272.105 127.393 273.06 127.601 273.672 128.017C274.284 128.433 274.585 129.115 274.577 130.061C274.583 131.008 274.299 132.27 273.725 133.848C272.921 136.057 271.955 137.872 270.828 139.292C269.7 140.712 268.37 141.766 266.837 142.455C265.32 143.143 263.541 143.502 261.5 143.531L262.471 140.863C263.402 140.863 264.276 140.726 265.093 140.454C265.93 140.167 266.658 139.78 267.279 139.292C267.904 138.79 268.365 138.216 268.661 137.571H268.569C268.063 137.786 267.604 137.936 267.191 138.023C266.778 138.109 266.35 138.152 265.908 138.152C264.442 138.152 263.51 137.736 263.111 136.904C262.732 136.057 262.863 134.752 263.505 132.988C264.231 130.994 265.155 129.567 266.277 128.706C267.42 127.831 268.93 127.393 270.808 127.393ZM269.845 129.975C269.158 129.975 268.569 130.212 268.076 130.685C267.588 131.144 267.167 131.862 266.812 132.837C266.457 133.812 266.353 134.537 266.502 135.01C266.655 135.469 267.075 135.699 267.762 135.699C268.449 135.699 269.036 135.469 269.524 135.01C270.017 134.537 270.441 133.812 270.796 132.837C271.151 131.862 271.252 131.144 271.098 130.685C270.95 130.212 270.532 129.975 269.845 129.975Z" fill="white"/>
<path d="M253.656 143.316L258.081 131.159H258.035L251.733 135.01L253.017 131.482L259.373 127.609H262.67L256.953 143.316H253.656Z" fill="white"/>
<path d="M244.59 136.516C244.102 136.516 243.762 136.38 243.571 136.108C243.381 135.835 243.366 135.476 243.528 135.032C243.695 134.573 243.97 134.214 244.354 133.956C244.744 133.683 245.183 133.547 245.671 133.547C246.159 133.547 246.499 133.683 246.69 133.956C246.886 134.214 246.901 134.573 246.733 135.032C246.572 135.476 246.296 135.835 245.907 136.108C245.518 136.38 245.079 136.516 244.59 136.516ZM242.037 143.531C240.77 143.531 239.849 143.294 239.273 142.821C238.703 142.333 238.448 141.544 238.509 140.454C238.57 139.364 238.929 137.915 239.587 136.108L240.057 134.817C240.72 132.995 241.415 131.546 242.143 130.47C242.875 129.38 243.702 128.598 244.622 128.125C245.548 127.637 246.644 127.393 247.911 127.393C249.162 127.393 250.074 127.637 250.644 128.125C251.235 128.598 251.5 129.38 251.439 130.47C251.383 131.546 251.024 132.995 250.361 134.817L249.891 136.108C249.233 137.915 248.538 139.364 247.805 140.454C247.073 141.544 246.236 142.333 245.295 142.821C244.375 143.294 243.289 143.531 242.037 143.531ZM243.008 140.863C243.527 140.863 243.964 140.734 244.317 140.475C244.671 140.217 245.021 139.737 245.368 139.034C245.736 138.317 246.171 137.269 246.672 135.892L246.985 135.032C247.487 133.655 247.812 132.615 247.961 131.912C248.13 131.195 248.132 130.707 247.966 130.449C247.801 130.191 247.459 130.061 246.94 130.061C246.436 130.061 246 130.191 245.631 130.449C245.278 130.707 244.917 131.195 244.549 131.912C244.202 132.615 243.777 133.655 243.276 135.032L242.963 135.892C242.462 137.269 242.126 138.317 241.957 139.034C241.808 139.737 241.816 140.217 241.982 140.475C242.162 140.734 242.505 140.863 243.008 140.863Z" fill="white"/>
<path d="M227.027 140.734C228.447 139.686 229.664 138.754 230.679 137.936C231.699 137.104 232.55 136.359 233.233 135.699C233.921 135.025 234.464 134.415 234.861 133.87C235.257 133.325 235.545 132.808 235.722 132.321C235.999 131.56 236.027 131.001 235.806 130.642C235.586 130.284 235.102 130.104 234.354 130.104C233.377 130.104 232.128 130.37 230.606 130.901L231.624 128.103C232.942 127.63 234.424 127.393 236.073 127.393C237.737 127.393 238.822 127.766 239.329 128.512C239.842 129.244 239.811 130.399 239.236 131.976C238.996 132.636 238.651 133.31 238.202 133.999C237.774 134.673 237.231 135.369 236.573 136.086C235.915 136.803 235.15 137.542 234.278 138.302C233.421 139.062 232.442 139.844 231.34 140.647L231.309 140.734H236.186L235.247 143.316H226.088L227.027 140.734Z" fill="white"/>
<path d="M196.413 143.316L200.838 131.159H200.792L194.49 135.01L195.774 131.482L202.13 127.609H205.427L199.71 143.316H196.413Z" fill="white"/>
<path d="M184.964 143.316L189.389 131.159H189.343L183.041 135.01L184.326 131.482L190.681 127.609H193.978L188.261 143.316H184.964Z" fill="white"/>
<path d="M179.219 127.393C180.517 127.393 181.471 127.601 182.083 128.017C182.695 128.433 182.997 129.115 182.988 130.061C182.994 131.008 182.71 132.27 182.136 133.848C181.332 136.057 180.366 137.872 179.239 139.292C178.111 140.712 176.781 141.766 175.248 142.455C173.731 143.143 171.952 143.502 169.911 143.531L170.882 140.863C171.813 140.863 172.687 140.726 173.504 140.454C174.341 140.167 175.07 139.78 175.69 139.292C176.315 138.79 176.776 138.216 177.072 137.571H176.98C176.475 137.786 176.015 137.936 175.602 138.023C175.189 138.109 174.762 138.152 174.319 138.152C172.854 138.152 171.921 137.736 171.522 136.904C171.143 136.057 171.275 134.752 171.917 132.988C172.642 130.994 173.566 129.567 174.689 128.706C175.831 127.831 177.342 127.393 179.219 127.393ZM178.257 129.975C177.57 129.975 176.98 130.212 176.487 130.685C175.999 131.144 175.578 131.862 175.223 132.837C174.868 133.812 174.765 134.537 174.913 135.01C175.066 135.469 175.486 135.699 176.173 135.699C176.86 135.699 177.448 135.469 177.935 135.01C178.428 134.537 178.852 133.812 179.207 132.837C179.562 131.862 179.663 131.144 179.509 130.685C179.361 130.212 178.943 129.975 178.257 129.975Z" fill="white"/>
<path d="M164.45 136.516C163.962 136.516 163.622 136.38 163.431 136.108C163.24 135.835 163.226 135.476 163.388 135.032C163.555 134.573 163.83 134.214 164.214 133.956C164.604 133.683 165.042 133.547 165.531 133.547C166.019 133.547 166.359 133.683 166.55 133.956C166.746 134.214 166.76 134.573 166.593 135.032C166.431 135.476 166.156 135.835 165.767 136.108C165.377 136.38 164.939 136.516 164.45 136.516ZM161.897 143.531C160.63 143.531 159.709 143.294 159.133 142.821C158.563 142.333 158.308 141.544 158.369 140.454C158.43 139.364 158.789 137.915 159.447 136.108L159.917 134.817C160.58 132.995 161.275 131.546 162.003 130.47C162.735 129.38 163.562 128.598 164.482 128.125C165.407 127.637 166.504 127.393 167.771 127.393C169.022 127.393 169.933 127.637 170.504 128.125C171.095 128.598 171.36 129.38 171.299 130.47C171.243 131.546 170.884 132.995 170.221 134.817L169.751 136.108C169.093 137.915 168.398 139.364 167.665 140.454C166.932 141.544 166.096 142.333 165.155 142.821C164.235 143.294 163.149 143.531 161.897 143.531ZM162.868 140.863C163.387 140.863 163.823 140.734 164.177 140.475C164.53 140.217 164.881 139.737 165.228 139.034C165.596 138.317 166.031 137.269 166.532 135.892L166.845 135.032C167.346 133.655 167.671 132.615 167.82 131.912C167.99 131.195 167.992 130.707 167.826 130.449C167.661 130.191 167.319 130.061 166.8 130.061C166.296 130.061 165.86 130.191 165.491 130.449C165.137 130.707 164.777 131.195 164.409 131.912C164.061 132.615 163.637 133.655 163.136 135.032L162.823 135.892C162.321 137.269 161.986 138.317 161.817 139.034C161.668 139.737 161.676 140.217 161.841 140.475C162.022 140.734 162.364 140.863 162.868 140.863Z" fill="white"/>
<path d="M123.99 140.734C125.409 139.686 126.626 138.754 127.641 137.936C128.661 137.104 129.513 136.359 130.196 135.699C130.884 135.025 131.426 134.415 131.823 133.87C132.22 133.325 132.507 132.808 132.685 132.321C132.961 131.56 132.989 131.001 132.769 130.642C132.548 130.284 132.064 130.104 131.316 130.104C130.339 130.104 129.09 130.37 127.569 130.901L128.587 128.103C129.904 127.63 131.387 127.393 133.036 127.393C134.699 127.393 135.785 127.766 136.292 128.512C136.804 129.244 136.773 130.399 136.199 131.976C135.959 132.636 135.614 133.31 135.165 133.999C134.736 134.673 134.193 135.369 133.535 136.086C132.877 136.803 132.112 137.542 131.24 138.302C130.384 139.062 129.404 139.844 128.303 140.647L128.272 140.734H133.149L132.209 143.316H123.05L123.99 140.734Z" fill="white"/>
<path d="M118.656 136.516C118.167 136.516 117.828 136.38 117.637 136.108C117.446 135.835 117.431 135.476 117.593 135.032C117.76 134.573 118.036 134.214 118.42 133.956C118.809 133.683 119.248 133.547 119.736 133.547C120.225 133.547 120.565 133.683 120.755 133.956C120.951 134.214 120.966 134.573 120.799 135.032C120.637 135.476 120.361 135.835 119.972 136.108C119.583 136.38 119.144 136.516 118.656 136.516ZM116.103 143.531C114.836 143.531 113.914 143.294 113.339 142.821C112.768 142.333 112.513 141.544 112.574 140.454C112.635 139.364 112.995 137.915 113.653 136.108L114.122 134.817C114.786 132.995 115.481 131.546 116.208 130.47C116.941 129.38 117.767 128.598 118.687 128.125C119.613 127.637 120.709 127.393 121.976 127.393C123.228 127.393 124.139 127.637 124.709 128.125C125.3 128.598 125.565 129.38 125.504 130.47C125.449 131.546 125.089 132.995 124.426 134.817L123.956 136.108C123.299 137.915 122.603 139.364 121.871 140.454C121.138 141.544 120.301 142.333 119.361 142.821C118.44 143.294 117.354 143.531 116.103 143.531ZM117.074 140.863C117.593 140.863 118.029 140.734 118.382 140.475C118.736 140.217 119.086 139.737 119.434 139.034C119.802 138.317 120.236 137.269 120.737 135.892L121.051 135.032C121.552 133.655 121.877 132.615 122.026 131.912C122.195 131.195 122.197 130.707 122.032 130.449C121.866 130.191 121.524 130.061 121.005 130.061C120.501 130.061 120.065 130.191 119.696 130.449C119.343 130.707 118.982 131.195 118.614 131.912C118.267 132.615 117.843 133.655 117.341 135.032L117.028 135.892C116.527 137.269 116.192 138.317 116.022 139.034C115.873 139.737 115.881 140.217 116.047 140.475C116.228 140.734 116.57 140.863 117.074 140.863Z" fill="white"/>
<path d="M104.654 143.531C103.372 143.531 102.417 143.323 101.79 142.907C101.178 142.491 100.869 141.809 100.863 140.863C100.871 139.916 101.163 138.654 101.737 137.076C102.546 134.852 103.512 133.038 104.634 131.632C105.762 130.212 107.092 129.158 108.625 128.469C110.158 127.781 111.937 127.422 113.962 127.393L112.991 130.061C112.075 130.061 111.199 130.205 110.362 130.492C109.53 130.764 108.804 131.144 108.183 131.632C107.563 132.12 107.102 132.694 106.801 133.353H106.893C107.399 133.138 107.858 132.988 108.271 132.902C108.684 132.816 109.112 132.773 109.554 132.773C111.02 132.773 111.942 133.196 112.321 134.042C112.72 134.874 112.599 136.172 111.957 137.936C111.231 139.93 110.297 141.365 109.154 142.24C108.032 143.1 106.532 143.531 104.654 143.531ZM105.617 140.949C106.304 140.949 106.891 140.719 107.379 140.26C107.871 139.787 108.295 139.062 108.65 138.087C109.005 137.112 109.106 136.394 108.953 135.935C108.804 135.462 108.387 135.225 107.7 135.225C107.013 135.225 106.423 135.462 105.93 135.935C105.443 136.394 105.021 137.112 104.666 138.087C104.311 139.062 104.208 139.787 104.356 140.26C104.51 140.719 104.93 140.949 105.617 140.949Z" fill="white"/>
<path d="M93.3754 143.316L97.8001 131.159H97.7543L91.4525 135.01L92.7368 131.482L99.0922 127.609H102.389L96.6726 143.316H93.3754Z" fill="white"/>
<path d="M385.513 199.137C385.752 198.481 386.511 197.95 387.209 197.95H397.947C398.644 197.95 399.016 198.481 398.778 199.137L396.026 206.697C395.859 207.155 395.427 207.572 394.916 207.769L388.672 210.171C388.273 210.325 387.874 210.325 387.586 210.171L383.092 207.769C382.723 207.572 382.595 207.155 382.762 206.697L385.513 199.137Z" fill="white"/>
<path d="M405.726 199.137C405.965 198.481 406.724 197.95 407.421 197.95H410.58C411.277 197.95 411.649 198.481 411.411 199.137L410.547 201.511C410.308 202.167 409.549 202.698 408.851 202.698H405.693C404.995 202.698 404.623 202.167 404.862 201.511L405.726 199.137Z" fill="white"/>
<path d="M418.359 199.137C418.598 198.481 419.357 197.95 420.054 197.95H430.792C431.49 197.95 431.862 198.481 431.624 199.137L429.031 206.26C428.792 206.915 428.033 207.447 427.336 207.447H416.598C415.9 207.447 415.528 206.915 415.766 206.26L418.359 199.137Z" fill="white"/>
<path d="M380.976 211.602C381.215 210.946 381.974 210.414 382.672 210.414H393.41C394.108 210.414 394.48 210.946 394.241 211.602L391.649 218.724C391.41 219.38 390.651 219.911 389.953 219.911H379.215C378.518 219.911 378.145 219.38 378.384 218.724L380.976 211.602Z" fill="white"/>
<path d="M399.128 206.853C399.366 206.198 400.125 205.666 400.823 205.666H411.561C412.259 205.666 412.631 206.198 412.392 206.853L406.343 223.473C406.105 224.128 405.346 224.66 404.648 224.66H393.91C393.212 224.66 392.84 224.128 393.079 223.473L399.128 206.853Z" fill="white"/>
<path d="M413.822 211.602C414.061 210.946 414.82 210.414 415.518 210.414H426.256C426.953 210.414 427.325 210.946 427.087 211.602L424.494 218.724C424.256 219.38 423.497 219.911 422.799 219.911H412.061C411.363 219.911 410.991 219.38 411.23 218.724L413.822 211.602Z" fill="white"/>
<path d="M376.44 224.066C376.678 223.411 377.437 222.879 378.135 222.879H388.873C389.571 222.879 389.943 223.411 389.704 224.066L387.112 231.189C386.873 231.844 386.114 232.376 385.417 232.376H374.679C373.981 232.376 373.609 231.844 373.847 231.189L376.44 224.066Z" fill="white"/>
<path d="M394.924 228.815C395.163 228.159 395.922 227.628 396.62 227.628H399.778C400.475 227.628 400.848 228.159 400.609 228.815L399.745 231.189C399.506 231.844 398.747 232.376 398.049 232.376H394.891C394.194 232.376 393.821 231.844 394.06 231.189L394.924 228.815Z" fill="white"/>
<path d="M409.445 223.629C409.611 223.171 410.043 222.754 410.555 222.557L416.798 220.154C417.198 220.001 417.597 220.001 417.885 220.154L422.379 222.557C422.747 222.754 422.876 223.171 422.709 223.629L419.958 231.189C419.719 231.844 418.96 232.376 418.262 232.376H407.524C406.826 232.376 406.454 231.844 406.693 231.189L409.445 223.629Z" fill="white"/>
<defs>
<filter id="filter0_b_1_160" x="-1.38989" y="-12.5995" width="535.502" height="285.547" filterUnits="userSpaceOnUse" color-interpolation-filters="sRGB">
<feFlood flood-opacity="0" result="BackgroundImageFix"/>
<feGaussianBlur in="BackgroundImageFix" stdDeviation="6.83767"/>
<feComposite in2="SourceAlpha" operator="in" result="effect1_backgroundBlur_1_160"/>
<feBlend mode="normal" in="SourceGraphic" in2="effect1_backgroundBlur_1_160" result="shape"/>
</filter>
<filter id="filter1_b_1_160" x="-2.60021" y="-13.6753" width="537.922" height="287.698" filterUnits="userSpaceOnUse" color-interpolation-filters="sRGB">
<feFlood flood-opacity="0" result="BackgroundImageFix"/>
<feGaussianBlur in="BackgroundImageFix" stdDeviation="6.83767"/>
<feComposite in2="SourceAlpha" operator="in" result="effect1_backgroundBlur_1_160"/>
<feBlend mode="normal" in="SourceGraphic" in2="effect1_backgroundBlur_1_160" result="shape"/>
</filter>
<linearGradient id="paint0_linear_1_160" x1="123.574" y1="12.9098" x2="276.775" y2="252.584" gradientUnits="userSpaceOnUse">
<stop stop-color="white"/>
<stop offset="1" stop-color="white" stop-opacity="0.55"/>
</linearGradient>
</defs>
</svg>
