<svg width="552" height="303" viewBox="0 0 552 303" fill="none" xmlns="http://www.w3.org/2000/svg">
<g filter="url(#filter0_d_1_138)">
<path d="M89.4228 37.1269C96.343 18.1139 118.355 2.70081 138.588 2.70081H500.365C520.598 2.70081 531.39 18.1139 524.47 37.1269L455.555 226.471C448.634 245.484 426.622 260.897 406.389 260.897H44.6128C24.3795 260.897 13.5871 245.484 20.5073 226.471L89.4228 37.1269Z" fill="white"/>
<path fill-rule="evenodd" clip-rule="evenodd" d="M88.278 37.1269C95.4144 17.5198 118.115 1.625 138.98 1.625H500.756C521.622 1.625 532.751 17.5198 525.615 37.127L456.699 226.471C449.563 246.078 426.863 261.973 405.997 261.973H44.2212C23.3557 261.973 12.226 246.078 19.3624 226.471L88.278 37.1269ZM138.197 3.77663C118.596 3.77663 97.2716 18.7081 90.5677 37.1269L21.6522 226.471C14.9482 244.89 25.4034 259.821 45.0043 259.821H406.78C426.381 259.821 447.706 244.89 454.41 226.471L523.325 37.127C530.029 18.7081 519.574 3.77663 499.973 3.77663H138.197Z" fill="url(#paint0_linear_1_138)" fill-opacity="0.5"/>
<path d="M117.714 195.124C116.24 195.124 115.235 194.773 114.7 194.07C114.165 193.367 114.135 192.363 114.61 191.058C115.071 189.792 115.796 188.798 116.786 188.075C117.786 187.352 118.922 186.991 120.194 186.991C121.422 186.991 122.249 187.332 122.674 188.015C123.098 188.698 123.082 189.667 122.625 190.922C122.574 191.063 122.512 191.218 122.44 191.389C122.367 191.56 122.31 191.685 122.27 191.765H115.442L115.93 190.425H121.252L120.815 190.832C121.115 190.008 121.165 189.401 120.966 189.009C120.781 188.608 120.351 188.407 119.678 188.407C118.962 188.407 118.341 188.618 117.813 189.039C117.3 189.451 116.895 190.063 116.599 190.877L116.407 191.404C116.13 192.167 116.137 192.734 116.429 193.106C116.725 193.467 117.306 193.648 118.171 193.648C118.62 193.648 119.115 193.608 119.658 193.528C120.203 193.437 120.7 193.322 121.146 193.181L120.86 194.627C120.399 194.778 119.891 194.898 119.334 194.989C118.778 195.079 118.238 195.124 117.714 195.124Z" fill="#ADADAD"/>
<path d="M99.847 194.974L102.698 187.142H104.525L104.222 188.06H104.254C104.678 187.719 105.131 187.458 105.613 187.277C106.1 187.086 106.62 186.991 107.176 186.991C107.721 186.991 108.146 187.086 108.45 187.277C108.769 187.458 108.947 187.719 108.983 188.06H109.015C109.471 187.689 109.938 187.418 110.417 187.247C110.896 187.076 111.418 186.991 111.985 186.991C112.882 186.991 113.452 187.217 113.693 187.669C113.939 188.111 113.888 188.808 113.54 189.762L111.644 194.974H109.736L111.469 190.214C111.684 189.622 111.74 189.19 111.635 188.919C111.531 188.648 111.255 188.512 110.806 188.512C110.271 188.512 109.789 188.678 109.359 189.009C108.928 189.341 108.612 189.782 108.411 190.335L106.723 194.974H104.8L106.581 190.079C106.768 189.566 106.796 189.18 106.667 188.919C106.541 188.648 106.27 188.512 105.853 188.512C105.533 188.512 105.209 188.592 104.884 188.753C104.569 188.914 104.282 189.13 104.023 189.401C103.775 189.672 103.587 189.983 103.459 190.335L101.77 194.974H99.847Z" fill="#ADADAD"/>
<path d="M92.8577 195.124C92.0243 195.124 91.4439 194.913 91.1165 194.492C90.8035 194.06 90.7804 193.477 91.0472 192.744C91.3798 191.831 92.0149 191.128 92.9527 190.636C93.8904 190.144 95.0592 189.898 96.4589 189.898H97.629C97.7679 189.516 97.8204 189.225 97.7867 189.024C97.7672 188.813 97.6493 188.668 97.4327 188.587C97.2269 188.507 96.9049 188.467 96.4668 188.467C95.9326 188.467 95.3586 188.517 94.7451 188.618C94.1422 188.718 93.5531 188.869 92.9778 189.069L93.2531 187.608C93.8675 187.418 94.5261 187.267 95.2288 187.157C95.9314 187.046 96.614 186.991 97.2765 186.991C98.1207 186.991 98.7485 187.086 99.1599 187.277C99.5819 187.468 99.8176 187.789 99.8669 188.241C99.9161 188.693 99.8055 189.29 99.5351 190.033L97.737 194.974H95.8617L96.1746 194.07H96.1426C95.7408 194.381 95.2308 194.637 94.6128 194.838C93.9984 195.029 93.4134 195.124 92.8577 195.124ZM94.0892 193.678C94.4846 193.678 94.8717 193.613 95.2504 193.482C95.6328 193.342 95.9622 193.156 96.2386 192.925C96.515 192.694 96.7062 192.433 96.8122 192.142L97.1575 191.193H96.276C95.3571 191.193 94.6205 191.309 94.0663 191.54C93.5264 191.76 93.1724 192.102 93.0043 192.564C92.88 192.905 92.9096 193.176 93.0929 193.377C93.2763 193.578 93.6084 193.678 94.0892 193.678Z" fill="#ADADAD"/>
<path d="M79.0636 194.974L83.0654 183.979H85.1971L87.5657 191.871H87.5978L90.4703 183.979H92.4578L88.456 194.974H86.3243L83.9717 187.081H83.9396L81.0671 194.974H79.0636Z" fill="#ADADAD"/>
<path d="M226.424 109.984L227.197 107.86H229.473L228.7 109.984H226.424Z" fill="#ADADAD"/>
<path d="M220.579 110.134C219.232 110.134 218.318 109.783 217.837 109.08C217.37 108.367 217.372 107.363 217.843 106.068C218.315 104.772 219.042 103.773 220.024 103.07C221.021 102.357 222.192 102.001 223.539 102.001C224.885 102.001 225.797 102.357 226.275 103.07C226.756 103.773 226.761 104.772 226.29 106.068C225.819 107.363 225.084 108.367 224.088 109.08C223.095 109.783 221.925 110.134 220.579 110.134ZM221.116 108.658C221.853 108.658 222.493 108.442 223.034 108.01C223.58 107.569 224.008 106.921 224.319 106.068C224.629 105.214 224.671 104.571 224.443 104.14C224.219 103.698 223.739 103.477 223.002 103.477C222.275 103.477 221.634 103.698 221.077 104.14C220.536 104.571 220.109 105.214 219.799 106.068C219.488 106.921 219.445 107.569 219.669 108.01C219.907 108.442 220.389 108.658 221.116 108.658Z" fill="#ADADAD"/>
<path d="M205.133 109.983L209.135 98.9886H211.267L213.636 106.881H213.668L216.54 98.9886H218.528L214.526 109.983H212.394L210.042 102.091H210.009L207.137 109.983H205.133Z" fill="#ADADAD"/>
<path d="M193.515 110.134C192.404 110.134 191.668 109.778 191.308 109.065C190.947 108.352 191.001 107.353 191.469 106.068C191.937 104.782 192.61 103.783 193.489 103.07C194.369 102.357 195.364 102.001 196.475 102.001C197.031 102.001 197.5 102.091 197.883 102.272C198.266 102.453 198.549 102.719 198.731 103.07H198.779L200.264 98.9886H202.204L198.202 109.983H196.359L196.661 109.065H196.629C196.195 109.406 195.703 109.672 195.152 109.863C194.616 110.044 194.071 110.134 193.515 110.134ZM194.576 108.628C194.993 108.628 195.391 108.548 195.77 108.387C196.159 108.226 196.502 108.005 196.796 107.724C197.091 107.443 197.302 107.127 197.43 106.775L197.945 105.36C198.077 104.998 198.096 104.682 198.002 104.411C197.912 104.13 197.736 103.909 197.474 103.748C197.212 103.587 196.867 103.507 196.44 103.507C195.767 103.507 195.163 103.728 194.628 104.17C194.104 104.612 193.692 105.244 193.392 106.068C193.093 106.891 193.044 107.523 193.247 107.965C193.46 108.407 193.903 108.628 194.576 108.628Z" fill="#ADADAD"/>
<path d="M184.031 109.984L186.882 102.152H188.773L188.252 103.628H188.284C188.686 103.286 189.118 102.995 189.579 102.754C190.055 102.503 190.545 102.317 191.048 102.197C191.555 102.066 192.06 102.001 192.562 102.001L191.981 103.597C191.308 103.597 190.65 103.718 190.006 103.959C189.374 104.2 188.817 104.526 188.336 104.938C187.869 105.34 187.544 105.791 187.362 106.293L186.018 109.984H184.031Z" fill="#ADADAD"/>
<path d="M177.042 110.134C176.208 110.134 175.628 109.923 175.301 109.502C174.988 109.07 174.964 108.487 175.231 107.754C175.564 106.841 176.199 106.138 177.137 105.646C178.074 105.154 179.243 104.908 180.643 104.908H181.813C181.952 104.526 182.005 104.235 181.971 104.034C181.951 103.823 181.833 103.678 181.617 103.597C181.411 103.517 181.089 103.477 180.651 103.477C180.117 103.477 179.543 103.527 178.929 103.628C178.326 103.728 177.737 103.879 177.162 104.079L177.437 102.618C178.052 102.428 178.71 102.277 179.413 102.167C180.116 102.056 180.798 102.001 181.461 102.001C182.305 102.001 182.933 102.096 183.344 102.287C183.766 102.478 184.002 102.799 184.051 103.251C184.1 103.703 183.99 104.3 183.719 105.043L181.921 109.984H180.046L180.359 109.08H180.327C179.925 109.391 179.415 109.647 178.797 109.848C178.182 110.039 177.597 110.134 177.042 110.134ZM178.273 108.688C178.669 108.688 179.056 108.623 179.434 108.492C179.817 108.352 180.146 108.166 180.423 107.935C180.699 107.704 180.89 107.443 180.996 107.152L181.342 106.203H180.46C179.541 106.203 178.805 106.319 178.25 106.55C177.71 106.77 177.356 107.112 177.188 107.574C177.064 107.915 177.094 108.186 177.277 108.387C177.46 108.588 177.792 108.688 178.273 108.688Z" fill="#ADADAD"/>
<path d="M169.332 110.134C168.06 110.134 167.047 109.908 166.293 109.456C165.538 109.004 165.069 108.357 164.884 107.513C164.71 106.67 164.837 105.661 165.265 104.486C165.696 103.301 166.304 102.292 167.088 101.459C167.886 100.615 168.827 99.9676 169.911 99.5158C170.994 99.0639 172.172 98.838 173.443 98.838C174.896 98.838 176.076 99.1342 176.983 99.7266L175.915 101.383C175.037 100.801 174.032 100.51 172.899 100.51C172.055 100.51 171.264 100.67 170.528 100.992C169.795 101.303 169.155 101.755 168.608 102.347C168.061 102.94 167.636 103.653 167.332 104.486C167.033 105.309 166.939 106.022 167.051 106.625C167.167 107.217 167.476 107.674 167.979 107.995C168.485 108.307 169.16 108.462 170.004 108.462C171.105 108.462 172.322 108.171 173.656 107.589L173.518 109.245C172.18 109.838 170.785 110.134 169.332 110.134Z" fill="#ADADAD"/>
<path d="M155.311 110.134C154.328 110.134 153.686 109.943 153.387 109.562C153.088 109.18 153.096 108.558 153.41 107.694L154.89 103.628H153.031L153.568 102.152H155.427L156.359 99.5911H158.347L157.415 102.152H160.22L159.682 103.628H156.877L155.567 107.227C155.385 107.729 155.342 108.081 155.44 108.282C155.552 108.472 155.833 108.568 156.281 108.568C156.517 108.568 156.77 108.548 157.041 108.507C157.312 108.467 157.562 108.412 157.79 108.342L157.413 109.863C157.013 109.963 156.645 110.034 156.31 110.074C155.975 110.114 155.642 110.134 155.311 110.134Z" fill="#ADADAD"/>
<path d="M150.512 100.766L151.159 98.9886H153.146L152.499 100.766H150.512ZM147.157 109.983L149.991 102.197H151.979L149.144 109.983H147.157Z" fill="#ADADAD"/>
<path d="M139.984 110.134C138.873 110.134 138.137 109.778 137.777 109.065C137.416 108.352 137.47 107.353 137.938 106.068C138.406 104.782 139.079 103.783 139.958 103.07C140.838 102.357 141.833 102.001 142.944 102.001C143.5 102.001 143.969 102.091 144.352 102.272C144.735 102.453 145.018 102.719 145.199 103.07H145.248L146.733 98.9886H148.673L144.671 109.983H142.828L143.13 109.065H143.098C142.664 109.406 142.171 109.672 141.621 109.863C141.085 110.044 140.539 110.134 139.984 110.134ZM141.045 108.628C141.462 108.628 141.86 108.548 142.239 108.387C142.628 108.226 142.97 108.005 143.265 107.724C143.56 107.443 143.771 107.127 143.899 106.775L144.414 105.36C144.546 104.998 144.565 104.682 144.471 104.411C144.381 104.13 144.205 103.909 143.943 103.748C143.681 103.587 143.336 103.507 142.909 103.507C142.236 103.507 141.632 103.728 141.097 104.17C140.573 104.612 140.161 105.244 139.861 106.068C139.561 106.891 139.513 107.523 139.715 107.965C139.929 108.407 140.372 108.628 141.045 108.628Z" fill="#ADADAD"/>
<path d="M131.838 110.134C130.363 110.134 129.359 109.783 128.824 109.08C128.289 108.377 128.259 107.373 128.734 106.068C129.195 104.802 129.92 103.808 130.91 103.085C131.91 102.362 133.046 102.001 134.317 102.001C135.546 102.001 136.373 102.342 136.798 103.025C137.222 103.708 137.206 104.677 136.749 105.932C136.698 106.073 136.636 106.228 136.563 106.399C136.491 106.57 136.434 106.695 136.394 106.775H129.566L130.054 105.435H135.376L134.939 105.842C135.239 105.018 135.289 104.411 135.09 104.019C134.904 103.618 134.475 103.417 133.802 103.417C133.086 103.417 132.465 103.628 131.937 104.049C131.424 104.461 131.019 105.074 130.723 105.887L130.531 106.414C130.254 107.177 130.261 107.744 130.553 108.116C130.849 108.477 131.43 108.658 132.295 108.658C132.744 108.658 133.239 108.618 133.782 108.538C134.327 108.447 134.823 108.332 135.27 108.191L134.984 109.637C134.523 109.788 134.015 109.908 133.458 109.999C132.902 110.089 132.362 110.134 131.838 110.134Z" fill="#ADADAD"/>
<path d="M121.296 109.984L124.147 102.152H126.038L125.517 103.628H125.549C125.951 103.286 126.383 102.995 126.845 102.754C127.321 102.503 127.81 102.317 128.314 102.197C128.821 102.066 129.325 102.001 129.828 102.001L129.246 103.597C128.573 103.597 127.915 103.718 127.272 103.959C126.639 104.2 126.082 104.526 125.601 104.938C125.134 105.34 124.81 105.791 124.627 106.293L123.284 109.984H121.296Z" fill="#ADADAD"/>
<path d="M115.425 110.134C114.153 110.134 113.14 109.908 112.386 109.456C111.631 109.004 111.162 108.357 110.977 107.513C110.804 106.67 110.93 105.661 111.358 104.486C111.789 103.301 112.397 102.292 113.181 101.459C113.98 100.615 114.921 99.9676 116.004 99.5158C117.087 99.0639 118.265 98.838 119.536 98.838C120.99 98.838 122.169 99.1342 123.076 99.7266L122.008 101.383C121.13 100.801 120.125 100.51 118.992 100.51C118.148 100.51 117.357 100.67 116.621 100.992C115.888 101.303 115.248 101.755 114.701 102.347C114.154 102.94 113.729 103.653 113.426 104.486C113.126 105.309 113.032 106.022 113.144 106.625C113.26 107.217 113.569 107.674 114.072 107.995C114.578 108.307 115.253 108.462 116.098 108.462C117.198 108.462 118.415 108.171 119.749 107.589L119.611 109.245C118.274 109.838 116.878 110.134 115.425 110.134Z" fill="#ADADAD"/>
<path d="M249.923 190.67L250.696 188.546H252.972L252.199 190.67H249.923Z" fill="#ADADAD"/>
<path d="M247.735 182.687C248.846 182.687 249.582 183.044 249.942 183.757C250.302 184.47 250.249 185.469 249.781 186.754C249.313 188.039 248.64 189.038 247.76 189.751C246.881 190.464 245.886 190.82 244.775 190.82C244.23 190.82 243.76 190.73 243.367 190.549C242.987 190.359 242.705 190.092 242.519 189.751H242.487L241.001 193.833H239.03L243.032 182.838H244.907L244.589 183.757H244.621C245.069 183.405 245.561 183.139 246.097 182.958C246.633 182.778 247.179 182.687 247.735 182.687ZM246.674 184.193C246.268 184.193 245.87 184.274 245.48 184.434C245.09 184.595 244.748 184.816 244.453 185.097C244.173 185.368 243.967 185.684 243.836 186.046L243.32 187.462C243.192 187.813 243.168 188.129 243.247 188.411C243.337 188.692 243.519 188.913 243.792 189.073C244.064 189.234 244.404 189.314 244.81 189.314C245.494 189.314 246.098 189.093 246.622 188.652C247.146 188.21 247.558 187.577 247.857 186.754C248.157 185.93 248.206 185.298 248.003 184.856C247.801 184.414 247.358 184.193 246.674 184.193Z" fill="#ADADAD"/>
<path d="M230.555 190.67L234.635 186.724L233.437 182.838H235.617L236.317 185.76H236.349L239.175 182.838H241.355L237.328 186.724L238.537 190.67H236.357L235.642 187.703H235.609L232.75 190.67H230.555Z" fill="#ADADAD"/>
<path d="M221.448 190.67L225.45 179.675H233.272L232.68 181.302H226.862L225.831 184.133H231.329L230.748 185.73H225.25L224.044 189.043H229.862L229.27 190.67H221.448Z" fill="#ADADAD"/>
<path d="M248.38 221.065L251.152 213.448H251.124L246.898 215.398L246.915 213.99L251.81 211.641H253.554L250.124 221.065H248.38Z" fill="#1A1E1C"/>
<path d="M239.552 221.065L242.324 213.448H242.297L238.07 215.398L238.088 213.99L242.982 211.641H244.727L241.296 221.065H239.552Z" fill="#1A1E1C"/>
<path d="M227.865 221.581L236.562 211.125H238.238L229.541 221.581H227.865Z" fill="#1A1E1C"/>
<path d="M226.961 211.512C227.786 211.512 228.432 211.649 228.899 211.925C229.367 212.2 229.646 212.605 229.735 213.138C229.834 213.672 229.739 214.335 229.451 215.126C229.019 216.314 228.394 217.351 227.577 218.238C226.772 219.116 225.824 219.808 224.732 220.316C223.641 220.824 222.446 221.112 221.148 221.181L221.32 219.877C222.478 219.817 223.486 219.589 224.344 219.193C225.206 218.789 225.947 218.199 226.568 217.424L226.545 217.411C226.15 217.592 225.747 217.73 225.337 217.825C224.936 217.919 224.516 217.967 224.076 217.967C223.06 217.967 222.36 217.687 221.977 217.127C221.604 216.568 221.597 215.793 221.958 214.804C222.208 214.115 222.574 213.526 223.055 213.035C223.536 212.545 224.107 212.17 224.769 211.912C225.434 211.645 226.165 211.512 226.961 211.512ZM226.459 212.893C225.781 212.893 225.198 213.061 224.709 213.397C224.233 213.724 223.887 214.184 223.671 214.778C223.454 215.372 223.455 215.837 223.671 216.172C223.9 216.499 224.336 216.663 224.977 216.663C225.435 216.663 225.854 216.594 226.233 216.456C226.616 216.31 226.945 216.099 227.219 215.824C227.506 215.54 227.718 215.208 227.856 214.83C227.978 214.494 228.019 214.18 227.979 213.887C227.948 213.594 227.81 213.358 227.564 213.177C227.331 212.988 226.962 212.893 226.459 212.893Z" fill="#1A1E1C"/>
<path d="M214.609 221.194C213.272 221.194 212.423 220.798 212.06 220.006C211.698 219.215 211.816 217.997 212.415 216.353C213.013 214.709 213.781 213.491 214.72 212.699C215.658 211.908 216.796 211.512 218.133 211.512C219.471 211.512 220.316 211.908 220.669 212.699C221.031 213.491 220.913 214.709 220.314 216.353C219.716 217.997 218.948 219.215 218.009 220.006C217.08 220.798 215.947 221.194 214.609 221.194ZM215.131 219.761C215.891 219.761 216.545 219.486 217.094 218.935C217.643 218.384 218.13 217.523 218.556 216.353C218.985 215.174 219.124 214.313 218.974 213.771C218.826 213.22 218.372 212.945 217.612 212.945C216.852 212.945 216.193 213.22 215.635 213.771C215.09 214.313 214.602 215.174 214.173 216.353C213.747 217.523 213.608 218.384 213.756 218.935C213.912 219.486 214.371 219.761 215.131 219.761Z" fill="#1A1E1C"/>
<path d="M164.545 221.065L167.975 211.641H169.624L171.82 218.741H171.848L174.432 211.641H175.943L172.513 221.065H170.864L168.668 213.965H168.64L166.056 221.065H164.545Z" fill="#1A1E1C"/>
<path d="M153.856 221.065L160.94 211.641H162.987L163.198 221.065H161.535L161.529 212.854H161.501L155.518 221.065H153.856ZM156.611 218.703L157.081 217.412H162.645L162.175 218.703H156.611Z" fill="#1A1E1C"/>
<path d="M150.992 221.065L154.422 211.641H155.933L152.503 221.065H150.992ZM144.809 221.065L148.24 211.641H149.751L146.321 221.065H144.809ZM147.125 216.779L147.595 215.488H153.777L153.307 216.779H147.125Z" fill="#1A1E1C"/>
<path d="M140.787 221.065L144.218 211.641H145.784L142.354 221.065H140.787Z" fill="#1A1E1C"/>
<path d="M129.975 221.065L137.059 211.641H139.106L139.317 221.065H137.654L137.648 212.854H137.62L131.637 221.065H129.975ZM132.73 218.703L133.2 217.412H138.764L138.294 218.703H132.73Z" fill="#1A1E1C"/>
<path d="M121.492 221.065L124.922 211.641H127.944C129.419 211.641 130.414 211.865 130.929 212.312C131.453 212.76 131.538 213.47 131.184 214.442C130.836 215.398 130.246 216.112 129.414 216.585C128.592 217.059 127.512 217.295 126.175 217.295H123.619L124.071 216.056H126.406C127.34 216.056 128.057 215.936 128.557 215.695C129.069 215.445 129.426 215.045 129.626 214.494C129.827 213.943 129.76 213.547 129.426 213.306C129.105 213.057 128.477 212.932 127.543 212.932H125.963L123.003 221.065H121.492ZM127.358 221.065L124.38 216.753H126.29L129.323 221.065H127.358Z" fill="#1A1E1C"/>
<path d="M107.338 221.065L110.768 211.641H112.416L114.613 218.741H114.64L117.225 211.641H118.736L115.306 221.065H113.657L111.461 213.965H111.433L108.849 221.065H107.338Z" fill="#1A1E1C"/>
<path d="M96.6484 221.065L103.733 211.641H105.78L105.99 221.065H104.328L104.322 212.854H104.294L98.3108 221.065H96.6484ZM99.4042 218.703L99.8741 217.412H105.438L104.968 218.703H99.4042Z" fill="#1A1E1C"/>
<path d="M93.7844 221.065L97.2145 211.641H98.7258L95.2956 221.065H93.7844ZM87.6022 221.065L91.0323 211.641H92.5435L89.1134 221.065H87.6022ZM89.9178 216.779L90.3877 215.488H96.5699L96.1 216.779H89.9178Z" fill="#1A1E1C"/>
<path d="M78.9084 221.065L82.3385 211.641H88.9329L88.4724 212.906H83.3892L82.4401 215.514H87.2485L86.7974 216.753H81.989L80.8801 219.8H85.9633L85.5028 221.065H78.9084Z" fill="#1A1E1C"/>
<path d="M69.4365 221.065L72.8666 211.641H75.889C77.3636 211.641 78.3583 211.865 78.8732 212.312C79.3972 212.76 79.4822 213.47 79.1283 214.442C78.7805 215.398 78.1908 216.112 77.3591 216.585C76.5365 217.059 75.4566 217.295 74.1194 217.295H71.5641L72.0152 216.056H74.3507C75.2849 216.056 76.002 215.936 76.5018 215.695C77.014 215.445 77.3703 215.045 77.5708 214.494C77.7712 213.943 77.7047 213.547 77.3711 213.306C77.0498 213.057 76.422 212.932 75.4878 212.932H73.9079L70.9477 221.065H69.4365ZM75.3027 221.065L72.3247 216.753H74.2344L77.2673 221.065H75.3027Z" fill="#1A1E1C"/>
<path fill-rule="evenodd" clip-rule="evenodd" d="M150.149 53.0886C153.74 50.7289 156.685 47.3434 158.054 43.5813C159.423 39.8192 158.943 36.4338 157.07 34.074C160.284 31.9619 164.018 30.6715 167.602 30.6715C175.189 30.6715 179.236 36.4516 176.641 43.5813C174.046 50.7111 165.791 56.4911 158.204 56.4911C154.62 56.4911 151.826 55.2007 150.149 53.0886ZM150.149 53.0886C146.934 55.2007 143.201 56.4911 139.617 56.4911C132.03 56.4911 127.982 50.7111 130.577 43.5813C133.172 36.4516 141.427 30.6715 149.015 30.6715C152.598 30.6715 155.393 31.9619 157.07 34.074C153.479 36.4338 150.534 39.8192 149.165 43.5813C147.795 47.3434 148.276 50.7289 150.149 53.0886Z" fill="#1A1E1C"/>
<path fill-rule="evenodd" clip-rule="evenodd" d="M489.308 30.9216C490.106 30.4909 490.947 30.6303 491.186 31.233C492.458 34.442 493.377 39.9152 492.012 46.0114C490.637 52.1494 486.917 59.0015 478.86 64.6985C478.114 65.2258 477.208 65.2313 476.837 64.711C476.465 64.1907 476.768 63.3414 477.514 62.8142C484.541 57.8455 487.815 51.8943 489.054 46.3613C490.303 40.7865 489.457 35.7208 488.295 32.7928C488.056 32.1901 488.51 31.3524 489.308 30.9216ZM481.33 35.8408C482.128 35.4092 482.97 35.5474 483.21 36.1494C484.111 38.4075 484.763 42.2483 483.804 46.5371C482.836 50.8683 480.196 55.7376 474.463 59.782C473.716 60.3084 472.811 60.3127 472.44 59.7915C472.07 59.2704 472.375 58.4211 473.121 57.8947C477.822 54.5783 480.014 50.6115 480.846 46.888C481.688 43.1222 481.11 39.6897 480.321 37.7124C480.081 37.1104 480.533 36.2724 481.33 35.8408ZM474.613 41.2096C475.41 40.7752 476.253 40.9093 476.497 41.5093C476.994 42.73 477.356 44.7906 476.841 47.1095C476.316 49.4724 474.851 52.1804 471.651 54.4217C470.903 54.9455 469.999 54.9455 469.632 54.4217C469.265 53.8979 469.574 53.0486 470.322 52.5248C472.485 51.0105 473.494 49.2103 473.882 47.4638C474.28 45.6731 473.995 44.0229 473.612 43.0827C473.368 42.4827 473.816 41.6441 474.613 41.2096ZM468.67 46.7669C468.144 46.7669 467.572 47.1672 467.393 47.6611C467.213 48.1549 467.493 48.5553 468.019 48.5553C468.544 48.5553 469.116 48.1549 469.296 47.6611C469.475 47.1672 469.195 46.7669 468.67 46.7669ZM464.538 47.6611C465.257 45.6857 467.544 44.0843 469.646 44.0843C471.748 44.0843 472.869 45.6857 472.15 47.6611C471.431 49.6365 469.144 51.2378 467.042 51.2378C464.94 51.2378 463.819 49.6365 464.538 47.6611Z" fill="#1A1E1C"/>
<path d="M339.924 144.94L344.349 132.784H344.303L338.001 136.635L339.285 133.106L345.641 129.233H348.938L343.221 144.94H339.924Z" fill="#1A1E1C"/>
<path d="M324.744 142.358C326.163 141.311 327.38 140.379 328.395 139.561C329.415 138.729 330.267 137.983 330.95 137.324C331.638 136.649 332.18 136.04 332.577 135.495C332.974 134.95 333.261 134.433 333.439 133.946C333.715 133.185 333.743 132.626 333.523 132.267C333.302 131.909 332.818 131.729 332.07 131.729C331.093 131.729 329.844 131.995 328.323 132.525L329.341 129.728C330.658 129.255 332.141 129.018 333.79 129.018C335.453 129.018 336.539 129.391 337.046 130.137C337.558 130.869 337.527 132.023 336.953 133.601C336.713 134.261 336.368 134.935 335.919 135.624C335.49 136.298 334.947 136.994 334.289 137.711C333.631 138.428 332.866 139.167 331.994 139.927C331.138 140.687 330.158 141.469 329.057 142.272L329.026 142.358H333.903L332.963 144.94H323.804L324.744 142.358Z" fill="#1A1E1C"/>
<path d="M319.41 138.141C318.921 138.141 318.582 138.005 318.391 137.732C318.2 137.46 318.185 137.101 318.347 136.657C318.514 136.198 318.79 135.839 319.174 135.581C319.563 135.308 320.002 135.172 320.49 135.172C320.979 135.172 321.319 135.308 321.509 135.581C321.705 135.839 321.72 136.198 321.553 136.657C321.391 137.101 321.116 137.46 320.726 137.732C320.337 138.005 319.898 138.141 319.41 138.141ZM316.857 145.156C315.59 145.156 314.668 144.919 314.093 144.446C313.522 143.958 313.268 143.169 313.328 142.079C313.389 140.989 313.749 139.54 314.407 137.732L314.877 136.441C315.54 134.62 316.235 133.171 316.962 132.095C317.695 131.005 318.521 130.223 319.442 129.75C320.367 129.262 321.463 129.018 322.73 129.018C323.982 129.018 324.893 129.262 325.464 129.75C326.054 130.223 326.319 131.005 326.258 132.095C326.203 133.171 325.843 134.62 325.18 136.441L324.71 137.732C324.053 139.54 323.357 140.989 322.625 142.079C321.892 143.169 321.055 143.958 320.115 144.446C319.194 144.919 318.108 145.156 316.857 145.156ZM317.828 142.488C318.347 142.488 318.783 142.358 319.137 142.1C319.49 141.842 319.84 141.362 320.188 140.659C320.556 139.941 320.99 138.894 321.492 137.517L321.805 136.657C322.306 135.28 322.631 134.24 322.78 133.537C322.95 132.82 322.951 132.332 322.786 132.074C322.62 131.815 322.278 131.686 321.759 131.686C321.255 131.686 320.819 131.815 320.45 132.074C320.097 132.332 319.736 132.82 319.368 133.537C319.021 134.24 318.597 135.28 318.095 136.657L317.782 137.517C317.281 138.894 316.946 139.941 316.776 140.659C316.627 141.362 316.636 141.842 316.801 142.1C316.982 142.358 317.324 142.488 317.828 142.488Z" fill="#1A1E1C"/>
<path d="M301.847 142.358C303.266 141.311 304.483 140.379 305.498 139.561C306.518 138.729 307.37 137.983 308.053 137.324C308.741 136.649 309.283 136.04 309.68 135.495C310.077 134.95 310.364 134.433 310.541 133.946C310.818 133.185 310.846 132.626 310.626 132.267C310.405 131.909 309.921 131.729 309.173 131.729C308.196 131.729 306.947 131.995 305.426 132.525L306.444 129.728C307.761 129.255 309.244 129.018 310.892 129.018C312.556 129.018 313.642 129.391 314.149 130.137C314.661 130.869 314.63 132.023 314.056 133.601C313.815 134.261 313.471 134.935 313.022 135.624C312.593 136.298 312.05 136.994 311.392 137.711C310.734 138.428 309.969 139.167 309.097 139.927C308.24 140.687 307.261 141.469 306.16 142.272L306.129 142.358H311.006L310.066 144.94H300.907L301.847 142.358Z" fill="#1A1E1C"/>
<path d="M276.936 129.018C278.233 129.018 279.188 129.226 279.8 129.642C280.412 130.058 280.713 130.74 280.704 131.686C280.711 132.633 280.427 133.895 279.853 135.473C279.049 137.682 278.083 139.497 276.956 140.917C275.828 142.337 274.498 143.391 272.965 144.08C271.448 144.768 269.668 145.127 267.628 145.156L268.599 142.488C269.53 142.488 270.404 142.351 271.22 142.079C272.058 141.792 272.786 141.405 273.406 140.917C274.032 140.415 274.493 139.841 274.789 139.196H274.697C274.191 139.411 273.732 139.561 273.319 139.647C272.906 139.733 272.478 139.776 272.036 139.776C270.57 139.776 269.638 139.36 269.238 138.529C268.859 137.682 268.991 136.377 269.633 134.613C270.359 132.619 271.283 131.191 272.405 130.331C273.548 129.456 275.058 129.018 276.936 129.018ZM275.973 131.6C275.286 131.6 274.696 131.837 274.203 132.31C273.716 132.769 273.295 133.487 272.94 134.462C272.584 135.437 272.481 136.162 272.629 136.635C272.783 137.094 273.203 137.324 273.89 137.324C274.577 137.324 275.164 137.094 275.652 136.635C276.145 136.162 276.569 135.437 276.924 134.462C277.279 133.487 277.379 132.769 277.226 132.31C277.078 131.837 276.66 131.6 275.973 131.6Z" fill="#1A1E1C"/>
<path d="M259.784 144.94L264.208 132.784H264.163L257.861 136.635L259.145 133.106L265.5 129.233H268.798L263.081 144.94H259.784Z" fill="#1A1E1C"/>
<path d="M250.718 138.141C250.23 138.141 249.89 138.005 249.699 137.732C249.508 137.46 249.494 137.101 249.656 136.657C249.823 136.198 250.098 135.839 250.482 135.581C250.872 135.308 251.31 135.172 251.799 135.172C252.287 135.172 252.627 135.308 252.818 135.581C253.014 135.839 253.028 136.198 252.861 136.657C252.699 137.101 252.424 137.46 252.035 137.732C251.645 138.005 251.207 138.141 250.718 138.141ZM248.165 145.156C246.898 145.156 245.977 144.919 245.401 144.446C244.831 143.958 244.576 143.169 244.637 142.079C244.698 140.989 245.057 139.54 245.715 137.732L246.185 136.441C246.848 134.62 247.543 133.171 248.271 132.095C249.003 131.005 249.83 130.223 250.75 129.75C251.675 129.262 252.772 129.018 254.039 129.018C255.29 129.018 256.201 129.262 256.772 129.75C257.363 130.223 257.628 131.005 257.567 132.095C257.511 133.171 257.152 134.62 256.489 136.441L256.019 137.732C255.361 139.54 254.666 140.989 253.933 142.079C253.201 143.169 252.364 143.958 251.423 144.446C250.503 144.919 249.417 145.156 248.165 145.156ZM249.136 142.488C249.655 142.488 250.091 142.358 250.445 142.1C250.798 141.842 251.149 141.362 251.496 140.659C251.864 139.941 252.299 138.894 252.8 137.517L253.113 136.657C253.614 135.28 253.939 134.24 254.088 133.537C254.258 132.82 254.26 132.332 254.094 132.074C253.929 131.815 253.587 131.686 253.068 131.686C252.564 131.686 252.128 131.815 251.759 132.074C251.405 132.332 251.045 132.82 250.677 133.537C250.329 134.24 249.905 135.28 249.404 136.657L249.091 137.517C248.589 138.894 248.254 139.941 248.085 140.659C247.936 141.362 247.944 141.842 248.109 142.1C248.29 142.358 248.632 142.488 249.136 142.488Z" fill="#1A1E1C"/>
<path d="M233.155 142.358C234.574 141.311 235.791 140.379 236.806 139.561C237.827 138.729 238.678 137.983 239.361 137.324C240.049 136.649 240.592 136.04 240.988 135.495C241.385 134.95 241.672 134.433 241.85 133.946C242.127 133.185 242.155 132.626 241.934 132.267C241.714 131.909 241.229 131.729 240.481 131.729C239.504 131.729 238.255 131.995 236.734 132.525L237.752 129.728C239.069 129.255 240.552 129.018 242.201 129.018C243.865 129.018 244.95 129.391 245.457 130.137C245.969 130.869 245.938 132.023 245.364 133.601C245.124 134.261 244.779 134.935 244.33 135.624C243.902 136.298 243.358 136.994 242.701 137.711C242.043 138.428 241.278 139.167 240.406 139.927C239.549 140.687 238.57 141.469 237.468 142.272L237.437 142.358H242.314L241.374 144.94H232.215L233.155 142.358Z" fill="#1A1E1C"/>
<path d="M202.541 144.94L206.965 132.784H206.92L200.618 136.635L201.902 133.106L208.258 129.233H211.555L205.838 144.94H202.541Z" fill="#1A1E1C"/>
<path d="M191.092 144.94L195.517 132.784H195.471L189.169 136.635L190.453 133.106L196.809 129.233H200.106L194.389 144.94H191.092Z" fill="#1A1E1C"/>
<path d="M185.347 129.018C186.644 129.018 187.599 129.226 188.211 129.642C188.823 130.058 189.124 130.74 189.116 131.686C189.122 132.633 188.838 133.895 188.264 135.473C187.46 137.682 186.494 139.497 185.367 140.917C184.239 142.337 182.909 143.391 181.376 144.08C179.859 144.768 178.08 145.127 176.039 145.156L177.01 142.488C177.941 142.488 178.815 142.351 179.632 142.079C180.469 141.792 181.197 141.405 181.818 140.917C182.443 140.415 182.904 139.841 183.2 139.196H183.108C182.602 139.411 182.143 139.561 181.73 139.647C181.317 139.733 180.889 139.776 180.447 139.776C178.981 139.776 178.049 139.36 177.65 138.529C177.271 137.682 177.402 136.377 178.044 134.613C178.77 132.619 179.694 131.191 180.816 130.331C181.959 129.456 183.469 129.018 185.347 129.018ZM184.384 131.6C183.697 131.6 183.108 131.837 182.615 132.31C182.127 132.769 181.706 133.487 181.351 134.462C180.996 135.437 180.892 136.162 181.041 136.635C181.194 137.094 181.614 137.324 182.301 137.324C182.988 137.324 183.575 137.094 184.063 136.635C184.556 136.162 184.98 135.437 185.335 134.462C185.69 133.487 185.791 132.769 185.637 132.31C185.489 131.837 185.071 131.6 184.384 131.6Z" fill="#1A1E1C"/>
<path d="M170.578 138.141C170.089 138.141 169.75 138.005 169.559 137.732C169.368 137.46 169.354 137.101 169.515 136.657C169.683 136.198 169.958 135.839 170.342 135.581C170.731 135.308 171.17 135.172 171.659 135.172C172.147 135.172 172.487 135.308 172.678 135.581C172.874 135.839 172.888 136.198 172.721 136.657C172.559 137.101 172.284 137.46 171.894 137.732C171.505 138.005 171.066 138.141 170.578 138.141ZM168.025 145.156C166.758 145.156 165.837 144.919 165.261 144.446C164.69 143.958 164.436 143.169 164.497 142.079C164.558 140.989 164.917 139.54 165.575 137.732L166.045 136.441C166.708 134.62 167.403 133.171 168.13 132.095C168.863 131.005 169.689 130.223 170.61 129.75C171.535 129.262 172.631 129.018 173.898 129.018C175.15 129.018 176.061 129.262 176.632 129.75C177.223 130.223 177.488 131.005 177.427 132.095C177.371 133.171 177.012 134.62 176.348 136.441L175.879 137.732C175.221 139.54 174.526 140.989 173.793 142.079C173.06 143.169 172.224 143.958 171.283 144.446C170.363 144.919 169.277 145.156 168.025 145.156ZM168.996 142.488C169.515 142.488 169.951 142.358 170.305 142.1C170.658 141.842 171.009 141.362 171.356 140.659C171.724 139.941 172.158 138.894 172.66 137.517L172.973 136.657C173.474 135.28 173.799 134.24 173.948 133.537C174.118 132.82 174.12 132.332 173.954 132.074C173.789 131.815 173.446 131.686 172.927 131.686C172.424 131.686 171.987 131.815 171.619 132.074C171.265 132.332 170.904 132.82 170.537 133.537C170.189 134.24 169.765 135.28 169.264 136.657L168.95 137.517C168.449 138.894 168.114 139.941 167.944 140.659C167.795 141.362 167.804 141.842 167.969 142.1C168.15 142.358 168.492 142.488 168.996 142.488Z" fill="#1A1E1C"/>
<path d="M130.118 142.358C131.537 141.311 132.754 140.379 133.769 139.561C134.789 138.729 135.641 137.983 136.324 137.324C137.012 136.649 137.554 136.04 137.951 135.495C138.348 134.95 138.635 134.433 138.812 133.946C139.089 133.185 139.117 132.626 138.897 132.267C138.676 131.909 138.192 131.729 137.444 131.729C136.467 131.729 135.218 131.995 133.697 132.525L134.715 129.728C136.032 129.255 137.515 129.018 139.163 129.018C140.827 129.018 141.913 129.391 142.42 130.137C142.932 130.869 142.901 132.023 142.327 133.601C142.086 134.261 141.742 134.935 141.293 135.624C140.864 136.298 140.321 136.994 139.663 137.711C139.005 138.428 138.24 139.167 137.368 139.927C136.511 140.687 135.532 141.469 134.431 142.272L134.4 142.358H139.277L138.337 144.94H129.178L130.118 142.358Z" fill="#1A1E1C"/>
<path d="M124.783 138.141C124.295 138.141 123.955 138.005 123.765 137.732C123.574 137.46 123.559 137.101 123.721 136.657C123.888 136.198 124.164 135.839 124.548 135.581C124.937 135.308 125.376 135.172 125.864 135.172C126.353 135.172 126.692 135.308 126.883 135.581C127.079 135.839 127.094 136.198 126.927 136.657C126.765 137.101 126.489 137.46 126.1 137.732C125.711 138.005 125.272 138.141 124.783 138.141ZM122.23 145.156C120.963 145.156 120.042 144.919 119.466 144.446C118.896 143.958 118.641 143.169 118.702 142.079C118.763 140.989 119.123 139.54 119.78 137.732L120.25 136.441C120.913 134.62 121.609 133.171 122.336 132.095C123.069 131.005 123.895 130.223 124.815 129.75C125.741 129.262 126.837 129.018 128.104 129.018C129.356 129.018 130.267 129.262 130.837 129.75C131.428 130.223 131.693 131.005 131.632 132.095C131.576 133.171 131.217 134.62 130.554 136.441L130.084 137.732C129.426 139.54 128.731 140.989 127.998 142.079C127.266 143.169 126.429 143.958 125.488 144.446C124.568 144.919 123.482 145.156 122.23 145.156ZM123.202 142.488C123.721 142.488 124.157 142.358 124.51 142.1C124.864 141.842 125.214 141.362 125.562 140.659C125.93 139.941 126.364 138.894 126.865 137.517L127.179 136.657C127.68 135.28 128.005 134.24 128.154 133.537C128.323 132.82 128.325 132.332 128.16 132.074C127.994 131.815 127.652 131.686 127.133 131.686C126.629 131.686 126.193 131.815 125.824 132.074C125.471 132.332 125.11 132.82 124.742 133.537C124.395 134.24 123.97 135.28 123.469 136.657L123.156 137.517C122.655 138.894 122.319 139.941 122.15 140.659C122.001 141.362 122.009 141.842 122.175 142.1C122.356 142.358 122.698 142.488 123.202 142.488Z" fill="#1A1E1C"/>
<path d="M110.782 145.156C109.5 145.156 108.545 144.948 107.918 144.532C107.306 144.116 106.997 143.434 106.99 142.488C106.999 141.541 107.291 140.279 107.865 138.701C108.674 136.477 109.64 134.663 110.762 133.257C111.89 131.837 113.22 130.783 114.753 130.094C116.285 129.406 118.065 129.047 120.09 129.018L119.119 131.686C118.203 131.686 117.326 131.83 116.489 132.117C115.657 132.389 114.931 132.769 114.311 133.257C113.691 133.745 113.23 134.319 112.929 134.978H113.021C113.526 134.763 113.986 134.613 114.399 134.526C114.812 134.44 115.239 134.397 115.682 134.397C117.148 134.397 118.07 134.821 118.449 135.667C118.848 136.499 118.727 137.797 118.084 139.561C117.359 141.555 116.424 142.99 115.282 143.865C114.159 144.725 112.659 145.156 110.782 145.156ZM111.745 142.574C112.431 142.574 113.019 142.344 113.506 141.885C113.999 141.412 114.423 140.687 114.778 139.712C115.133 138.737 115.234 138.019 115.08 137.56C114.932 137.087 114.515 136.85 113.828 136.85C113.141 136.85 112.551 137.087 112.058 137.56C111.57 138.019 111.149 138.737 110.794 139.712C110.439 140.687 110.336 141.412 110.484 141.885C110.637 142.344 111.058 142.574 111.745 142.574Z" fill="#1A1E1C"/>
<path d="M99.5032 144.94L103.928 132.784H103.882L97.5803 136.635L98.8646 133.106L105.22 129.233H108.517L102.8 144.94H99.5032Z" fill="#1A1E1C"/>
<path d="M391.641 200.762C391.88 200.106 392.639 199.575 393.336 199.575H404.074C404.772 199.575 405.144 200.106 404.906 200.762L402.154 208.322C401.987 208.78 401.555 209.197 401.044 209.394L394.8 211.797C394.401 211.95 394.002 211.95 393.714 211.797L389.219 209.394C388.851 209.197 388.723 208.78 388.889 208.322L391.641 200.762Z" fill="#1A1E1C"/>
<path d="M411.854 200.762C412.092 200.106 412.851 199.575 413.549 199.575H416.707C417.405 199.575 417.777 200.106 417.539 200.762L416.674 203.136C416.436 203.792 415.677 204.323 414.979 204.323H411.821C411.123 204.323 410.751 203.792 410.99 203.136L411.854 200.762Z" fill="#1A1E1C"/>
<path d="M424.487 200.762C424.725 200.106 425.484 199.575 426.182 199.575H436.92C437.618 199.575 437.99 200.106 437.751 200.762L435.159 207.885C434.92 208.54 434.161 209.072 433.464 209.072H422.726C422.028 209.072 421.656 208.54 421.894 207.885L424.487 200.762Z" fill="#1A1E1C"/>
<path d="M387.104 213.227C387.343 212.571 388.102 212.04 388.8 212.04H399.538C400.235 212.04 400.608 212.571 400.369 213.227L397.776 220.349C397.538 221.005 396.779 221.536 396.081 221.536H385.343C384.645 221.536 384.273 221.005 384.512 220.349L387.104 213.227Z" fill="#1A1E1C"/>
<path d="M405.255 208.478C405.494 207.823 406.253 207.291 406.951 207.291H417.689C418.386 207.291 418.759 207.823 418.52 208.478L412.471 225.098C412.232 225.753 411.473 226.285 410.776 226.285H400.038C399.34 226.285 398.968 225.753 399.206 225.098L405.255 208.478Z" fill="#1A1E1C"/>
<path d="M419.95 213.227C420.189 212.571 420.948 212.04 421.645 212.04H432.383C433.081 212.04 433.453 212.571 433.215 213.227L430.622 220.349C430.383 221.005 429.624 221.536 428.927 221.536H418.189C417.491 221.536 417.119 221.005 417.358 220.349L419.95 213.227Z" fill="#1A1E1C"/>
<path d="M382.568 225.691C382.806 225.036 383.565 224.504 384.263 224.504H395.001C395.699 224.504 396.071 225.036 395.832 225.691L393.24 232.814C393.001 233.47 392.242 234.001 391.544 234.001H380.806C380.109 234.001 379.736 233.47 379.975 232.814L382.568 225.691Z" fill="#1A1E1C"/>
<path d="M401.052 230.44C401.291 229.784 402.05 229.253 402.747 229.253H405.906C406.603 229.253 406.975 229.784 406.737 230.44L405.873 232.814C405.634 233.47 404.875 234.001 404.177 234.001H401.019C400.321 234.001 399.949 233.47 400.188 232.814L401.052 230.44Z" fill="#1A1E1C"/>
<path d="M415.572 225.254C415.739 224.796 416.171 224.379 416.683 224.182L422.926 221.779C423.326 221.626 423.725 221.626 424.012 221.779L428.507 224.182C428.875 224.379 429.004 224.796 428.837 225.254L426.085 232.814C425.847 233.47 425.088 234.001 424.39 234.001H413.652C412.954 234.001 412.582 233.47 412.821 232.814L415.572 225.254Z" fill="#1A1E1C"/>
</g>
<defs>
<filter id="filter0_d_1_138" x="0.108756" y="0.77029" width="551.598" height="301.374" filterUnits="userSpaceOnUse" color-interpolation-filters="sRGB">
<feFlood flood-opacity="0" result="BackgroundImageFix"/>
<feColorMatrix in="SourceAlpha" type="matrix" values="0 0 0 0 0 0 0 0 0 0 0 0 0 0 0 0 0 0 127 0" result="hardAlpha"/>
<feOffset dx="3.41884" dy="19.6583"/>
<feGaussianBlur stdDeviation="10.2565"/>
<feComposite in2="hardAlpha" operator="out"/>
<feColorMatrix type="matrix" values="0 0 0 0 0 0 0 0 0 0 0 0 0 0 0 0 0 0 0.08 0"/>
<feBlend mode="normal" in2="BackgroundImageFix" result="effect1_dropShadow_1_138"/>
<feBlend mode="normal" in="SourceGraphic" in2="effect1_dropShadow_1_138" result="shape"/>
</filter>
<linearGradient id="paint0_linear_1_138" x1="129.702" y1="14.5348" x2="282.902" y2="254.209" gradientUnits="userSpaceOnUse">
<stop stop-color="white"/>
<stop offset="1" stop-color="white" stop-opacity="0.55"/>
</linearGradient>
</defs>
</svg>
