<svg width="533" height="262" viewBox="0 0 533 262" fill="none" xmlns="http://www.w3.org/2000/svg">
<path d="M83.4228 36.1953C90.343 17.1823 112.355 1.76917 132.588 1.76917H494.365C514.598 1.76917 525.39 17.1823 518.47 36.1953L449.555 225.539C442.634 244.552 420.622 259.965 400.389 259.965H38.6128C18.3795 259.965 7.58712 244.552 14.5073 225.539L83.4228 36.1953Z" fill="#2BB32A"/>
<path fill-rule="evenodd" clip-rule="evenodd" d="M82.278 36.1953C89.4144 16.5881 112.115 0.693359 132.98 0.693359H494.756C515.622 0.693359 526.751 16.5881 519.615 36.1953L450.699 225.539C443.563 245.146 420.863 261.041 399.997 261.041H38.2212C17.3557 261.041 6.226 245.146 13.3624 225.539L82.278 36.1953ZM132.197 2.84499C112.596 2.84499 91.2716 17.7764 84.5677 36.1953L15.6522 225.539C8.94824 243.958 19.4034 258.889 39.0043 258.889H400.78C420.381 258.889 441.706 243.958 448.41 225.539L517.325 36.1953C524.029 17.7764 513.574 2.84499 493.973 2.84499H132.197Z" fill="url(#paint0_linear_1_149)" fill-opacity="0.5"/>
<path d="M111.714 194.192C110.24 194.192 109.235 193.84 108.7 193.137C108.165 192.435 108.135 191.431 108.61 190.125C109.071 188.86 109.796 187.866 110.786 187.143C111.786 186.42 112.922 186.059 114.194 186.059C115.422 186.059 116.249 186.4 116.674 187.083C117.098 187.766 117.082 188.735 116.625 189.99C116.574 190.13 116.512 190.286 116.44 190.457C116.367 190.627 116.31 190.753 116.27 190.833H109.442L109.93 189.493H115.252L114.815 189.899C115.115 189.076 115.165 188.468 114.966 188.077C114.781 187.675 114.351 187.474 113.678 187.474C112.962 187.474 112.341 187.685 111.813 188.107C111.3 188.519 110.895 189.131 110.599 189.944L110.407 190.472C110.13 191.235 110.137 191.802 110.429 192.174C110.725 192.535 111.306 192.716 112.171 192.716C112.62 192.716 113.115 192.676 113.658 192.595C114.203 192.505 114.7 192.389 115.146 192.249L114.86 193.695C114.399 193.845 113.891 193.966 113.334 194.056C112.778 194.147 112.238 194.192 111.714 194.192Z" fill="#595959"/>
<path d="M93.847 194.041L96.6976 186.209H98.5248L98.2224 187.128H98.2545C98.6779 186.787 99.1309 186.525 99.6134 186.345C100.1 186.154 100.62 186.059 101.176 186.059C101.721 186.059 102.146 186.154 102.45 186.345C102.769 186.525 102.947 186.787 102.983 187.128H103.015C103.471 186.756 103.938 186.485 104.417 186.315C104.896 186.144 105.418 186.059 105.985 186.059C106.882 186.059 107.452 186.285 107.693 186.736C107.939 187.178 107.888 187.876 107.54 188.83L105.644 194.041H103.736L105.469 189.282C105.684 188.689 105.74 188.258 105.635 187.986C105.531 187.715 105.255 187.58 104.806 187.58C104.271 187.58 103.789 187.745 103.359 188.077C102.928 188.408 102.612 188.85 102.411 189.402L100.723 194.041H98.7996L100.581 189.146C100.768 188.634 100.796 188.248 100.667 187.986C100.541 187.715 100.27 187.58 99.8531 187.58C99.5325 187.58 99.2095 187.66 98.8838 187.821C98.5689 187.981 98.282 188.197 98.023 188.468C97.7748 188.74 97.5867 189.051 97.4588 189.402L95.7703 194.041H93.847Z" fill="#595959"/>
<path d="M86.8577 194.192C86.0243 194.192 85.4439 193.981 85.1165 193.559C84.8035 193.127 84.7804 192.545 85.0472 191.812C85.3798 190.898 86.0149 190.195 86.9527 189.703C87.8904 189.211 89.0592 188.965 90.4589 188.965H91.629C91.7679 188.584 91.8204 188.293 91.7867 188.092C91.7672 187.881 91.6493 187.735 91.4327 187.655C91.2269 187.575 90.9049 187.535 90.4668 187.535C89.9326 187.535 89.3586 187.585 88.7451 187.685C88.1422 187.786 87.5531 187.936 86.9778 188.137L87.2531 186.676C87.8675 186.485 88.5261 186.335 89.2288 186.224C89.9314 186.114 90.614 186.059 91.2765 186.059C92.1207 186.059 92.7485 186.154 93.1599 186.345C93.5819 186.536 93.8176 186.857 93.8669 187.309C93.9161 187.761 93.8055 188.358 93.5351 189.101L91.737 194.041H89.8617L90.1746 193.137H90.1426C89.7408 193.449 89.2308 193.705 88.6128 193.906C87.9984 194.096 87.4134 194.192 86.8577 194.192ZM88.0892 192.746C88.4846 192.746 88.8717 192.681 89.2504 192.55C89.6328 192.409 89.9622 192.224 90.2386 191.993C90.515 191.762 90.7062 191.501 90.8122 191.21L91.1575 190.261H90.276C89.3571 190.261 88.6205 190.376 88.0663 190.607C87.5264 190.828 87.1724 191.169 87.0043 191.631C86.88 191.973 86.9096 192.244 87.0929 192.445C87.2763 192.645 87.6084 192.746 88.0892 192.746Z" fill="#595959"/>
<path d="M73.0636 194.041L77.0654 183.046H79.1971L81.5657 190.938H81.5978L84.4703 183.046H86.4578L82.456 194.041H80.3243L77.9717 186.149H77.9396L75.0671 194.041H73.0636Z" fill="#595959"/>
<path d="M220.424 109.052L221.197 106.928H223.473L222.7 109.052H220.424Z" fill="#595959"/>
<path d="M214.578 109.203C213.232 109.203 212.318 108.851 211.837 108.148C211.37 107.435 211.372 106.431 211.843 105.136C212.315 103.841 213.042 102.842 214.024 102.139C215.021 101.426 216.192 101.069 217.539 101.069C218.885 101.069 219.797 101.426 220.275 102.139C220.756 102.842 220.761 103.841 220.29 105.136C219.819 106.431 219.084 107.435 218.088 108.148C217.095 108.851 215.925 109.203 214.578 109.203ZM215.116 107.727C215.853 107.727 216.493 107.511 217.034 107.079C217.58 106.637 218.008 105.99 218.319 105.136C218.629 104.283 218.671 103.64 218.443 103.208C218.219 102.766 217.739 102.545 217.001 102.545C216.275 102.545 215.633 102.766 215.077 103.208C214.535 103.64 214.109 104.283 213.799 105.136C213.488 105.99 213.445 106.637 213.668 107.079C213.907 107.511 214.389 107.727 215.116 107.727Z" fill="#595959"/>
<path d="M199.133 109.052L203.135 98.0573H205.267L207.636 105.949H207.668L210.54 98.0573H212.528L208.526 109.052H206.394L204.041 101.16H204.009L201.137 109.052H199.133Z" fill="#595959"/>
<path d="M187.515 109.203C186.404 109.203 185.668 108.846 185.308 108.133C184.947 107.42 185.001 106.421 185.469 105.136C185.937 103.851 186.61 102.852 187.489 102.139C188.369 101.426 189.364 101.07 190.475 101.07C191.031 101.07 191.5 101.16 191.883 101.341C192.266 101.521 192.549 101.787 192.731 102.139H192.779L194.264 98.0573H196.204L192.202 109.052H190.359L190.661 108.133H190.629C190.195 108.475 189.703 108.741 189.152 108.932C188.616 109.112 188.071 109.203 187.515 109.203ZM188.576 107.697C188.993 107.697 189.391 107.616 189.77 107.456C190.159 107.295 190.502 107.074 190.796 106.793C191.091 106.512 191.302 106.195 191.43 105.844L191.945 104.428C192.077 104.067 192.096 103.75 192.002 103.479C191.912 103.198 191.736 102.977 191.474 102.817C191.212 102.656 190.867 102.576 190.44 102.576C189.767 102.576 189.163 102.797 188.628 103.238C188.104 103.68 187.692 104.313 187.392 105.136C187.093 105.959 187.044 106.592 187.247 107.034C187.46 107.476 187.903 107.697 188.576 107.697Z" fill="#595959"/>
<path d="M178.031 109.052L180.882 101.22H182.773L182.252 102.696H182.284C182.686 102.355 183.118 102.064 183.579 101.823C184.055 101.572 184.545 101.386 185.048 101.265C185.555 101.135 186.06 101.069 186.562 101.069L185.981 102.666C185.308 102.666 184.65 102.786 184.006 103.027C183.374 103.268 182.817 103.595 182.336 104.006C181.869 104.408 181.544 104.86 181.361 105.362L180.018 109.052H178.031Z" fill="#595959"/>
<path d="M171.042 109.203C170.208 109.203 169.628 108.992 169.301 108.57C168.988 108.138 168.964 107.556 169.231 106.823C169.564 105.909 170.199 105.206 171.137 104.714C172.074 104.222 173.243 103.976 174.643 103.976H175.813C175.952 103.595 176.004 103.304 175.971 103.103C175.951 102.892 175.833 102.746 175.617 102.666C175.411 102.586 175.089 102.545 174.651 102.545C174.117 102.545 173.543 102.596 172.929 102.696C172.326 102.797 171.737 102.947 171.162 103.148L171.437 101.687C172.052 101.496 172.71 101.346 173.413 101.235C174.115 101.125 174.798 101.069 175.461 101.069C176.305 101.069 176.932 101.165 177.344 101.356C177.766 101.546 178.002 101.868 178.051 102.32C178.1 102.771 177.99 103.369 177.719 104.112L175.921 109.052H174.046L174.359 108.148H174.327C173.925 108.46 173.415 108.716 172.797 108.916C172.182 109.107 171.597 109.203 171.042 109.203ZM172.273 107.757C172.669 107.757 173.056 107.691 173.434 107.561C173.817 107.42 174.146 107.235 174.423 107.004C174.699 106.773 174.89 106.512 174.996 106.22L175.342 105.272H174.46C173.541 105.272 172.805 105.387 172.25 105.618C171.71 105.839 171.356 106.18 171.188 106.642C171.064 106.984 171.094 107.255 171.277 107.456C171.46 107.656 171.792 107.757 172.273 107.757Z" fill="#595959"/>
<path d="M163.332 109.203C162.06 109.203 161.047 108.977 160.293 108.525C159.538 108.073 159.069 107.425 158.884 106.582C158.71 105.739 158.837 104.729 159.265 103.555C159.696 102.37 160.304 101.361 161.088 100.527C161.886 99.6839 162.827 99.0362 163.911 98.5844C164.994 98.1325 166.172 97.9066 167.443 97.9066C168.896 97.9066 170.076 98.2028 170.982 98.7952L169.915 100.452C169.037 99.8696 168.031 99.5784 166.899 99.5784C166.055 99.5784 165.264 99.7391 164.528 100.06C163.794 100.372 163.155 100.824 162.608 101.416C162.061 102.008 161.636 102.721 161.332 103.555C161.033 104.378 160.939 105.091 161.051 105.693C161.166 106.286 161.476 106.743 161.978 107.064C162.485 107.375 163.16 107.531 164.004 107.531C165.105 107.531 166.322 107.24 167.656 106.657L167.518 108.314C166.18 108.906 164.785 109.203 163.332 109.203Z" fill="#595959"/>
<path d="M149.311 109.203C148.328 109.203 147.686 109.012 147.387 108.63C147.088 108.249 147.095 107.626 147.41 106.763L148.89 102.696H147.031L147.568 101.22H149.427L150.359 98.6597H152.347L151.415 101.22H154.22L153.682 102.696H150.877L149.567 106.296C149.384 106.798 149.342 107.149 149.44 107.35C149.552 107.541 149.833 107.636 150.281 107.636C150.517 107.636 150.77 107.616 151.041 107.576C151.312 107.536 151.562 107.481 151.79 107.41L151.413 108.932C151.013 109.032 150.645 109.102 150.31 109.142C149.975 109.183 149.642 109.203 149.311 109.203Z" fill="#595959"/>
<path d="M144.512 99.8345L145.159 98.0573H147.146L146.499 99.8345H144.512ZM141.157 109.052L143.991 101.265H145.979L143.144 109.052H141.157Z" fill="#595959"/>
<path d="M133.984 109.203C132.872 109.203 132.137 108.846 131.776 108.133C131.416 107.42 131.47 106.421 131.938 105.136C132.406 103.851 133.079 102.852 133.958 102.139C134.837 101.426 135.833 101.07 136.944 101.07C137.5 101.07 137.969 101.16 138.352 101.341C138.735 101.521 139.017 101.787 139.199 102.139H139.248L140.733 98.0573H142.672L138.671 109.052H136.827L137.13 108.133H137.098C136.664 108.475 136.171 108.741 135.621 108.932C135.085 109.112 134.539 109.203 133.984 109.203ZM135.045 107.697C135.462 107.697 135.859 107.616 136.239 107.456C136.628 107.295 136.97 107.074 137.265 106.793C137.56 106.512 137.771 106.195 137.899 105.844L138.414 104.428C138.546 104.067 138.565 103.75 138.471 103.479C138.381 103.198 138.205 102.977 137.943 102.817C137.681 102.656 137.336 102.576 136.909 102.576C136.236 102.576 135.632 102.797 135.097 103.238C134.573 103.68 134.161 104.313 133.861 105.136C133.561 105.959 133.513 106.592 133.715 107.034C133.929 107.476 134.372 107.697 135.045 107.697Z" fill="#595959"/>
<path d="M125.838 109.203C124.363 109.203 123.359 108.851 122.824 108.148C122.289 107.445 122.259 106.441 122.734 105.136C123.195 103.871 123.92 102.877 124.909 102.154C125.91 101.431 127.046 101.069 128.317 101.069C129.546 101.069 130.373 101.411 130.798 102.094C131.222 102.776 131.206 103.745 130.749 105C130.698 105.141 130.636 105.297 130.563 105.467C130.491 105.638 130.434 105.764 130.394 105.844H123.566L124.054 104.503H129.376L128.939 104.91C129.239 104.087 129.289 103.479 129.089 103.088C128.904 102.686 128.475 102.485 127.802 102.485C127.086 102.485 126.464 102.696 125.937 103.118C125.424 103.529 125.019 104.142 124.723 104.955L124.531 105.482C124.254 106.246 124.261 106.813 124.553 107.184C124.849 107.546 125.43 107.727 126.295 107.727C126.744 107.727 127.239 107.686 127.781 107.606C128.327 107.516 128.823 107.4 129.27 107.26L128.984 108.706C128.523 108.856 128.015 108.977 127.458 109.067C126.902 109.157 126.362 109.203 125.838 109.203Z" fill="#595959"/>
<path d="M115.296 109.052L118.147 101.22H120.038L119.517 102.696H119.549C119.951 102.355 120.383 102.064 120.845 101.823C121.321 101.572 121.81 101.386 122.314 101.265C122.821 101.135 123.325 101.069 123.827 101.069L123.246 102.666C122.573 102.666 121.915 102.786 121.272 103.027C120.639 103.268 120.082 103.595 119.601 104.006C119.134 104.408 118.809 104.86 118.627 105.362L117.284 109.052H115.296Z" fill="#595959"/>
<path d="M109.425 109.203C108.153 109.203 107.14 108.977 106.386 108.525C105.631 108.073 105.162 107.425 104.977 106.582C104.803 105.739 104.93 104.729 105.358 103.555C105.789 102.37 106.397 101.361 107.181 100.527C107.98 99.6839 108.921 99.0362 110.004 98.5844C111.087 98.1325 112.265 97.9066 113.536 97.9066C114.99 97.9066 116.169 98.2028 117.076 98.7952L116.008 100.452C115.13 99.8696 114.125 99.5784 112.992 99.5784C112.148 99.5784 111.357 99.7391 110.621 100.06C109.888 100.372 109.248 100.824 108.701 101.416C108.154 102.008 107.729 102.721 107.426 103.555C107.126 104.378 107.032 105.091 107.144 105.693C107.26 106.286 107.569 106.743 108.072 107.064C108.578 107.375 109.253 107.531 110.098 107.531C111.198 107.531 112.415 107.24 113.749 106.657L113.611 108.314C112.274 108.906 110.878 109.203 109.425 109.203Z" fill="#595959"/>
<path d="M243.923 189.737L244.696 187.614H246.972L246.199 189.737H243.923Z" fill="#595959"/>
<path d="M241.735 181.755C242.846 181.755 243.582 182.111 243.942 182.824C244.302 183.537 244.249 184.536 243.781 185.821C243.313 187.107 242.64 188.106 241.76 188.819C240.881 189.532 239.886 189.888 238.775 189.888C238.23 189.888 237.76 189.798 237.367 189.617C236.987 189.426 236.705 189.16 236.519 188.819H236.487L235.001 192.9H233.03L237.032 181.905H238.907L238.589 182.824H238.621C239.069 182.473 239.561 182.207 240.097 182.026C240.633 181.845 241.179 181.755 241.735 181.755ZM240.674 183.261C240.268 183.261 239.87 183.341 239.48 183.502C239.09 183.663 238.748 183.884 238.453 184.165C238.173 184.436 237.967 184.752 237.836 185.114L237.32 186.529C237.192 186.881 237.168 187.197 237.247 187.478C237.337 187.759 237.519 187.98 237.792 188.141C238.064 188.302 238.404 188.382 238.81 188.382C239.494 188.382 240.098 188.161 240.622 187.719C241.146 187.277 241.558 186.645 241.857 185.821C242.157 184.998 242.206 184.366 242.003 183.924C241.801 183.482 241.358 183.261 240.674 183.261Z" fill="#595959"/>
<path d="M224.555 189.737L228.635 185.791L227.437 181.905H229.617L230.317 184.827H230.349L233.175 181.905H235.355L231.328 185.791L232.537 189.737H230.357L229.642 186.77H229.609L226.75 189.737H224.555Z" fill="#595959"/>
<path d="M215.448 189.737L219.45 178.743H227.272L226.68 180.369H220.862L219.831 183.201H225.329L224.748 184.797H219.25L218.044 188.111H223.862L223.27 189.737H215.448Z" fill="#595959"/>
<path d="M242.379 220.133L245.151 212.517H245.123L240.897 214.466L240.914 213.059L245.809 210.709H247.553L244.123 220.133H242.379Z" fill="#424242"/>
<path d="M233.551 220.133L236.323 212.517H236.296L232.069 214.466L232.087 213.059L236.981 210.709H238.726L235.295 220.133H233.551Z" fill="#424242"/>
<path d="M221.864 220.65L230.561 210.193H232.237L223.54 220.65H221.864Z" fill="#424242"/>
<path d="M220.96 210.58C221.785 210.58 222.431 210.718 222.898 210.993C223.366 211.269 223.645 211.673 223.734 212.207C223.833 212.74 223.738 213.403 223.45 214.195C223.018 215.383 222.393 216.42 221.576 217.306C220.771 218.184 219.823 218.877 218.731 219.385C217.64 219.892 216.445 220.181 215.147 220.25L215.319 218.946C216.477 218.886 217.485 218.657 218.343 218.262C219.205 217.857 219.946 217.267 220.567 216.493L220.544 216.48C220.149 216.661 219.746 216.798 219.336 216.893C218.935 216.988 218.515 217.035 218.075 217.035C217.059 217.035 216.359 216.755 215.976 216.196C215.603 215.637 215.596 214.862 215.957 213.872C216.207 213.184 216.573 212.594 217.054 212.104C217.535 211.613 218.106 211.239 218.768 210.98C219.433 210.714 220.164 210.58 220.96 210.58ZM220.458 211.962C219.78 211.962 219.197 212.129 218.708 212.465C218.232 212.792 217.886 213.253 217.67 213.846C217.454 214.44 217.454 214.905 217.671 215.241C217.9 215.568 218.335 215.731 218.976 215.731C219.434 215.731 219.853 215.662 220.232 215.525C220.615 215.378 220.944 215.167 221.218 214.892C221.505 214.608 221.717 214.277 221.855 213.898C221.977 213.562 222.018 213.248 221.978 212.956C221.947 212.663 221.809 212.426 221.563 212.246C221.33 212.056 220.961 211.962 220.458 211.962Z" fill="#424242"/>
<path d="M208.608 220.263C207.271 220.263 206.422 219.867 206.059 219.075C205.697 218.283 205.815 217.065 206.414 215.421C207.012 213.778 207.781 212.56 208.719 211.768C209.657 210.976 210.795 210.58 212.132 210.58C213.47 210.58 214.315 210.976 214.668 211.768C215.03 212.56 214.912 213.778 214.313 215.421C213.715 217.065 212.947 218.283 212.008 219.075C211.079 219.867 209.946 220.263 208.608 220.263ZM209.13 218.83C209.89 218.83 210.544 218.554 211.093 218.003C211.642 217.453 212.129 216.592 212.555 215.421C212.984 214.242 213.123 213.382 212.973 212.839C212.825 212.289 212.371 212.013 211.611 212.013C210.851 212.013 210.192 212.289 209.634 212.839C209.089 213.382 208.601 214.242 208.172 215.421C207.746 216.592 207.607 217.453 207.755 218.003C207.911 218.554 208.37 218.83 209.13 218.83Z" fill="#424242"/>
<path d="M158.545 220.133L161.975 210.709H163.624L165.82 217.81H165.848L168.432 210.709H169.943L166.513 220.133H164.864L162.668 213.033H162.64L160.056 220.133H158.545Z" fill="#424242"/>
<path d="M147.856 220.133L154.94 210.709H156.987L157.198 220.133H155.535L155.529 211.923H155.501L149.518 220.133H147.856ZM150.611 217.771L151.081 216.48H156.645L156.175 217.771H150.611Z" fill="#424242"/>
<path d="M144.992 220.133L148.422 210.709H149.933L146.503 220.133H144.992ZM138.809 220.133L142.24 210.709H143.751L140.321 220.133H138.809ZM141.125 215.847L141.595 214.556H147.777L147.307 215.847H141.125Z" fill="#424242"/>
<path d="M134.787 220.133L138.218 210.709H139.784L136.354 220.133H134.787Z" fill="#424242"/>
<path d="M123.975 220.133L131.059 210.709H133.106L133.317 220.133H131.654L131.648 211.923H131.62L125.637 220.133H123.975ZM126.73 217.771L127.2 216.48H132.764L132.294 217.771H126.73Z" fill="#424242"/>
<path d="M115.492 220.133L118.922 210.709H121.944C123.419 210.709 124.414 210.933 124.929 211.381C125.453 211.828 125.538 212.538 125.184 213.511C124.836 214.466 124.246 215.18 123.414 215.654C122.592 216.127 121.512 216.364 120.175 216.364H117.619L118.071 215.124H120.406C121.34 215.124 122.057 215.004 122.557 214.763C123.069 214.513 123.426 214.113 123.626 213.562C123.827 213.011 123.76 212.616 123.426 212.375C123.105 212.125 122.477 212 121.543 212H119.963L117.003 220.133H115.492ZM121.358 220.133L118.38 215.822H120.29L123.323 220.133H121.358Z" fill="#424242"/>
<path d="M101.338 220.133L104.768 210.709H106.416L108.613 217.81H108.64L111.225 210.709H112.736L109.306 220.133H107.657L105.461 213.033H105.433L102.849 220.133H101.338Z" fill="#424242"/>
<path d="M90.6484 220.133L97.7329 210.709H99.78L99.9905 220.133H98.3282L98.3216 211.923H98.2942L92.3108 220.133H90.6484ZM93.4042 217.771L93.8741 216.48H99.4381L98.9682 217.771H93.4042Z" fill="#424242"/>
<path d="M87.7844 220.133L91.2145 210.709H92.7258L89.2956 220.133H87.7844ZM81.6022 220.133L85.0323 210.709H86.5435L83.1134 220.133H81.6022ZM83.9178 215.847L84.3877 214.556H90.5699L90.1 215.847H83.9178Z" fill="#424242"/>
<path d="M72.9084 220.133L76.3385 210.709H82.9329L82.4724 211.974H77.3892L76.4401 214.582H81.2485L80.7974 215.822H75.989L74.8801 218.868H79.9633L79.5028 220.133H72.9084Z" fill="#424242"/>
<path d="M63.4365 220.133L66.8666 210.709H69.889C71.3636 210.709 72.3583 210.933 72.8732 211.381C73.3972 211.828 73.4822 212.538 73.1283 213.511C72.7805 214.466 72.1908 215.18 71.3591 215.654C70.5365 216.127 69.4566 216.364 68.1194 216.364H65.5641L66.0152 215.124H68.3507C69.2849 215.124 70.002 215.004 70.5018 214.763C71.014 214.513 71.3703 214.113 71.5708 213.562C71.7712 213.011 71.7047 212.616 71.3711 212.375C71.0498 212.125 70.422 212 69.4878 212H67.9079L64.9477 220.133H63.4365ZM69.3027 220.133L66.3247 215.822H68.2344L71.2673 220.133H69.3027Z" fill="#424242"/>
<path fill-rule="evenodd" clip-rule="evenodd" d="M144.149 52.1571C147.74 49.7973 150.685 46.4119 152.054 42.6498C153.423 38.8876 152.943 35.5022 151.07 33.1425C154.284 31.0304 158.018 29.74 161.601 29.74C169.189 29.74 173.236 35.52 170.641 42.6498C168.046 49.7795 159.791 55.5596 152.204 55.5596C148.62 55.5596 145.826 54.2692 144.149 52.1571ZM144.149 52.1571C140.934 54.2692 137.201 55.5596 133.617 55.5596C126.029 55.5596 121.982 49.7795 124.577 42.6498C127.172 35.52 135.427 29.74 143.014 29.74C146.598 29.74 149.393 31.0304 151.07 33.1425C147.478 35.5022 144.534 38.8876 143.164 42.6498C141.795 46.4119 142.275 49.7973 144.149 52.1571Z" fill="#424242"/>
<path fill-rule="evenodd" clip-rule="evenodd" d="M483.307 29.99C484.105 29.5593 484.946 29.6987 485.185 30.3014C486.457 33.5104 487.376 38.9835 486.011 45.0798C484.636 51.2177 480.916 58.0698 472.859 63.7669C472.113 64.2941 471.207 64.2997 470.836 63.7794C470.464 63.259 470.767 62.4098 471.513 61.8826C478.54 56.9138 481.814 50.9627 483.053 45.4296C484.302 39.8549 483.456 34.7892 482.294 31.8611C482.055 31.2585 482.509 30.4207 483.307 29.99ZM475.329 34.9092C476.127 34.4776 476.969 34.6157 477.209 35.2178C478.11 37.4759 478.762 41.3166 477.803 45.6055C476.835 49.9366 474.195 54.8059 468.462 58.8504C467.715 59.3768 466.81 59.381 466.44 58.8599C466.069 58.3387 466.374 57.4895 467.12 56.9631C471.821 53.6466 474.013 49.6799 474.845 45.9564C475.687 42.1906 475.109 38.758 474.32 36.7807C474.08 36.1787 474.532 35.3408 475.329 34.9092ZM468.612 40.278C469.409 39.8435 470.252 39.9777 470.496 40.5777C470.993 41.7984 471.355 43.859 470.84 46.1778C470.315 48.5408 468.851 51.2488 465.65 53.49C464.902 54.0138 463.998 54.0138 463.631 53.49C463.264 52.9662 463.573 52.117 464.321 51.5932C466.484 50.0789 467.493 48.2787 467.881 46.5322C468.279 44.7415 467.994 43.0912 467.611 42.151C467.367 41.551 467.815 40.7125 468.612 40.278ZM462.669 45.8353C462.143 45.8353 461.571 46.2356 461.392 46.7294C461.212 47.2233 461.492 47.6236 462.018 47.6236C462.543 47.6236 463.115 47.2233 463.295 46.7294C463.474 46.2356 463.194 45.8353 462.669 45.8353ZM458.537 46.7294C459.256 44.7541 461.543 43.1527 463.645 43.1527C465.747 43.1527 466.868 44.7541 466.149 46.7294C465.43 48.7048 463.143 50.3062 461.041 50.3062C458.939 50.3062 457.818 48.7048 458.537 46.7294Z" fill="#424242"/>
<path d="M333.923 144.009L338.348 131.852H338.302L332 135.704L333.284 132.175L339.64 128.302H342.937L337.22 144.009H333.923Z" fill="#424242"/>
<path d="M318.743 141.427C320.162 140.38 321.379 139.447 322.394 138.63C323.414 137.798 324.266 137.052 324.949 136.392C325.637 135.718 326.179 135.108 326.576 134.563C326.973 134.018 327.26 133.502 327.438 133.014C327.714 132.254 327.743 131.694 327.522 131.336C327.301 130.977 326.817 130.798 326.069 130.798C325.092 130.798 323.843 131.063 322.322 131.594L323.34 128.797C324.657 128.323 326.14 128.087 327.789 128.087C329.452 128.087 330.538 128.46 331.045 129.206C331.557 129.937 331.526 131.092 330.952 132.67C330.712 133.33 330.367 134.004 329.918 134.692C329.489 135.366 328.946 136.062 328.288 136.779C327.63 137.497 326.865 138.235 325.993 138.996C325.137 139.756 324.157 140.538 323.056 141.341L323.025 141.427H327.902L326.962 144.009H317.803L318.743 141.427Z" fill="#424242"/>
<path d="M313.409 137.21C312.92 137.21 312.581 137.073 312.39 136.801C312.199 136.528 312.185 136.17 312.346 135.725C312.513 135.266 312.789 134.907 313.173 134.649C313.562 134.377 314.001 134.24 314.49 134.24C314.978 134.24 315.318 134.377 315.508 134.649C315.705 134.907 315.719 135.266 315.552 135.725C315.39 136.17 315.115 136.528 314.725 136.801C314.336 137.073 313.897 137.21 313.409 137.21ZM310.856 144.224C309.589 144.224 308.667 143.987 308.092 143.514C307.521 143.026 307.267 142.237 307.328 141.147C307.388 140.057 307.748 138.608 308.406 136.801L308.876 135.51C309.539 133.688 310.234 132.239 310.961 131.164C311.694 130.073 312.52 129.292 313.441 128.818C314.366 128.331 315.462 128.087 316.729 128.087C317.981 128.087 318.892 128.331 319.463 128.818C320.053 129.292 320.318 130.073 320.258 131.164C320.202 132.239 319.842 133.688 319.179 135.51L318.709 136.801C318.052 138.608 317.356 140.057 316.624 141.147C315.891 142.237 315.054 143.026 314.114 143.514C313.193 143.987 312.107 144.224 310.856 144.224ZM311.827 141.556C312.346 141.556 312.782 141.427 313.136 141.169C313.489 140.911 313.84 140.43 314.187 139.727C314.555 139.01 314.989 137.963 315.491 136.586L315.804 135.725C316.305 134.348 316.63 133.308 316.779 132.605C316.949 131.888 316.95 131.4 316.785 131.142C316.619 130.884 316.277 130.755 315.758 130.755C315.254 130.755 314.818 130.884 314.449 131.142C314.096 131.4 313.735 131.888 313.367 132.605C313.02 133.308 312.596 134.348 312.094 135.725L311.781 136.586C311.28 137.963 310.945 139.01 310.775 139.727C310.626 140.43 310.635 140.911 310.8 141.169C310.981 141.427 311.323 141.556 311.827 141.556Z" fill="#424242"/>
<path d="M295.846 141.427C297.265 140.38 298.482 139.447 299.497 138.63C300.517 137.798 301.369 137.052 302.052 136.392C302.74 135.718 303.282 135.108 303.679 134.563C304.076 134.018 304.363 133.502 304.541 133.014C304.817 132.254 304.845 131.694 304.625 131.336C304.404 130.977 303.92 130.798 303.172 130.798C302.195 130.798 300.946 131.063 299.425 131.594L300.443 128.797C301.76 128.323 303.243 128.087 304.891 128.087C306.555 128.087 307.641 128.46 308.148 129.206C308.66 129.937 308.629 131.092 308.055 132.67C307.814 133.33 307.47 134.004 307.021 134.692C306.592 135.366 306.049 136.062 305.391 136.779C304.733 137.497 303.968 138.235 303.096 138.996C302.239 139.756 301.26 140.538 300.159 141.341L300.128 141.427H305.005L304.065 144.009H294.906L295.846 141.427Z" fill="#424242"/>
<path d="M270.935 128.087C272.232 128.087 273.187 128.295 273.799 128.711C274.411 129.127 274.712 129.808 274.703 130.755C274.71 131.702 274.426 132.964 273.852 134.542C273.048 136.751 272.082 138.565 270.955 139.985C269.827 141.405 268.497 142.46 266.964 143.148C265.447 143.837 263.667 144.195 261.627 144.224L262.598 141.556C263.529 141.556 264.403 141.42 265.22 141.147C266.057 140.86 266.785 140.473 267.406 139.985C268.031 139.483 268.492 138.91 268.788 138.264H268.696C268.19 138.479 267.731 138.63 267.318 138.716C266.905 138.802 266.477 138.845 266.035 138.845C264.569 138.845 263.637 138.429 263.237 137.597C262.858 136.751 262.99 135.445 263.632 133.681C264.358 131.687 265.282 130.26 266.404 129.399C267.547 128.524 269.057 128.087 270.935 128.087ZM269.972 130.669C269.285 130.669 268.695 130.905 268.203 131.379C267.715 131.838 267.294 132.555 266.939 133.53C266.584 134.506 266.48 135.23 266.628 135.704C266.782 136.163 267.202 136.392 267.889 136.392C268.576 136.392 269.163 136.163 269.651 135.704C270.144 135.23 270.568 134.506 270.923 133.53C271.278 132.555 271.378 131.838 271.225 131.379C271.077 130.905 270.659 130.669 269.972 130.669Z" fill="#424242"/>
<path d="M253.783 144.009L258.207 131.852H258.162L251.86 135.704L253.144 132.175L259.5 128.302H262.797L257.08 144.009H253.783Z" fill="#424242"/>
<path d="M244.717 137.21C244.229 137.21 243.889 137.073 243.698 136.801C243.507 136.528 243.493 136.17 243.655 135.725C243.822 135.266 244.097 134.907 244.481 134.649C244.871 134.377 245.309 134.24 245.798 134.24C246.286 134.24 246.626 134.377 246.817 134.649C247.013 134.907 247.027 135.266 246.86 135.725C246.698 136.17 246.423 136.528 246.034 136.801C245.644 137.073 245.206 137.21 244.717 137.21ZM242.164 144.224C240.897 144.224 239.976 143.987 239.4 143.514C238.83 143.026 238.575 142.237 238.636 141.147C238.697 140.057 239.056 138.608 239.714 136.801L240.184 135.51C240.847 133.688 241.542 132.239 242.27 131.164C243.002 130.073 243.829 129.292 244.749 128.818C245.674 128.331 246.771 128.087 248.038 128.087C249.289 128.087 250.2 128.331 250.771 128.818C251.362 129.292 251.627 130.073 251.566 131.164C251.51 132.239 251.151 133.688 250.488 135.51L250.018 136.801C249.36 138.608 248.665 140.057 247.932 141.147C247.2 142.237 246.363 143.026 245.422 143.514C244.502 143.987 243.416 144.224 242.164 144.224ZM243.135 141.556C243.654 141.556 244.09 141.427 244.444 141.169C244.797 140.911 245.148 140.43 245.495 139.727C245.863 139.01 246.298 137.963 246.799 136.586L247.112 135.725C247.613 134.348 247.938 133.308 248.087 132.605C248.257 131.888 248.259 131.4 248.093 131.142C247.928 130.884 247.586 130.755 247.067 130.755C246.563 130.755 246.127 130.884 245.758 131.142C245.404 131.4 245.044 131.888 244.676 132.605C244.328 133.308 243.904 134.348 243.403 135.725L243.09 136.586C242.588 137.963 242.253 139.01 242.084 139.727C241.935 140.43 241.943 140.911 242.108 141.169C242.289 141.427 242.631 141.556 243.135 141.556Z" fill="#424242"/>
<path d="M227.154 141.427C228.573 140.38 229.79 139.447 230.805 138.63C231.826 137.798 232.677 137.052 233.36 136.392C234.048 135.718 234.591 135.108 234.987 134.563C235.384 134.018 235.671 133.502 235.849 133.014C236.126 132.254 236.154 131.694 235.933 131.336C235.713 130.977 235.228 130.798 234.48 130.798C233.503 130.798 232.254 131.063 230.733 131.594L231.751 128.797C233.068 128.323 234.551 128.087 236.2 128.087C237.864 128.087 238.949 128.46 239.456 129.206C239.968 129.937 239.937 131.092 239.363 132.67C239.123 133.33 238.778 134.004 238.329 134.692C237.901 135.366 237.357 136.062 236.7 136.779C236.042 137.497 235.277 138.235 234.405 138.996C233.548 139.756 232.569 140.538 231.467 141.341L231.436 141.427H236.313L235.373 144.009H226.214L227.154 141.427Z" fill="#424242"/>
<path d="M196.54 144.009L200.964 131.852H200.919L194.617 135.704L195.901 132.175L202.257 128.302H205.554L199.837 144.009H196.54Z" fill="#424242"/>
<path d="M185.091 144.009L189.516 131.852H189.47L183.168 135.704L184.452 132.175L190.808 128.302H194.105L188.388 144.009H185.091Z" fill="#424242"/>
<path d="M179.346 128.087C180.644 128.087 181.598 128.295 182.21 128.711C182.822 129.127 183.123 129.808 183.115 130.755C183.121 131.702 182.837 132.964 182.263 134.542C181.459 136.751 180.493 138.565 179.366 139.985C178.238 141.405 176.908 142.46 175.375 143.148C173.858 143.837 172.079 144.195 170.038 144.224L171.009 141.556C171.94 141.556 172.814 141.42 173.631 141.147C174.468 140.86 175.197 140.473 175.817 139.985C176.442 139.483 176.903 138.91 177.199 138.264H177.107C176.601 138.479 176.142 138.63 175.729 138.716C175.316 138.802 174.888 138.845 174.446 138.845C172.98 138.845 172.048 138.429 171.649 137.597C171.27 136.751 171.401 135.445 172.044 133.681C172.769 131.687 173.693 130.26 174.815 129.399C175.958 128.524 177.468 128.087 179.346 128.087ZM178.383 130.669C177.696 130.669 177.107 130.905 176.614 131.379C176.126 131.838 175.705 132.555 175.35 133.53C174.995 134.506 174.891 135.23 175.04 135.704C175.193 136.163 175.613 136.392 176.3 136.392C176.987 136.392 177.574 136.163 178.062 135.704C178.555 135.23 178.979 134.506 179.334 133.53C179.689 132.555 179.79 131.838 179.636 131.379C179.488 130.905 179.07 130.669 178.383 130.669Z" fill="#424242"/>
<path d="M164.577 137.21C164.088 137.21 163.749 137.073 163.558 136.801C163.367 136.528 163.353 136.17 163.514 135.725C163.682 135.266 163.957 134.907 164.341 134.649C164.73 134.377 165.169 134.24 165.658 134.24C166.146 134.24 166.486 134.377 166.677 134.649C166.873 134.907 166.887 135.266 166.72 135.725C166.558 136.17 166.283 136.528 165.893 136.801C165.504 137.073 165.065 137.21 164.577 137.21ZM162.024 144.224C160.757 144.224 159.836 143.987 159.26 143.514C158.689 143.026 158.435 142.237 158.496 141.147C158.557 140.057 158.916 138.608 159.574 136.801L160.044 135.51C160.707 133.688 161.402 132.239 162.129 131.164C162.862 130.073 163.688 129.292 164.609 128.818C165.534 128.331 166.63 128.087 167.897 128.087C169.149 128.087 170.06 128.331 170.631 128.818C171.222 129.292 171.487 130.073 171.426 131.164C171.37 132.239 171.011 133.688 170.347 135.51L169.878 136.801C169.22 138.608 168.525 140.057 167.792 141.147C167.059 142.237 166.223 143.026 165.282 143.514C164.362 143.987 163.276 144.224 162.024 144.224ZM162.995 141.556C163.514 141.556 163.95 141.427 164.304 141.169C164.657 140.911 165.008 140.43 165.355 139.727C165.723 139.01 166.158 137.963 166.659 136.586L166.972 135.725C167.473 134.348 167.798 133.308 167.947 132.605C168.117 131.888 168.119 131.4 167.953 131.142C167.788 130.884 167.445 130.755 166.926 130.755C166.423 130.755 165.986 130.884 165.618 131.142C165.264 131.4 164.903 131.888 164.536 132.605C164.188 133.308 163.764 134.348 163.263 135.725L162.949 136.586C162.448 137.963 162.113 139.01 161.943 139.727C161.794 140.43 161.803 140.911 161.968 141.169C162.149 141.427 162.491 141.556 162.995 141.556Z" fill="#424242"/>
<path d="M124.117 141.427C125.536 140.38 126.753 139.447 127.768 138.63C128.788 137.798 129.64 137.052 130.323 136.392C131.011 135.718 131.553 135.108 131.95 134.563C132.347 134.018 132.634 133.502 132.812 133.014C133.088 132.254 133.116 131.694 132.896 131.336C132.675 130.977 132.191 130.798 131.443 130.798C130.466 130.798 129.217 131.063 127.696 131.594L128.714 128.797C130.031 128.323 131.514 128.087 133.162 128.087C134.826 128.087 135.912 128.46 136.419 129.206C136.931 129.937 136.9 131.092 136.326 132.67C136.085 133.33 135.741 134.004 135.292 134.692C134.863 135.366 134.32 136.062 133.662 136.779C133.004 137.497 132.239 138.235 131.367 138.996C130.51 139.756 129.531 140.538 128.43 141.341L128.399 141.427H133.276L132.336 144.009H123.177L124.117 141.427Z" fill="#424242"/>
<path d="M118.783 137.21C118.294 137.21 117.954 137.073 117.764 136.801C117.573 136.528 117.558 136.17 117.72 135.725C117.887 135.266 118.163 134.907 118.547 134.649C118.936 134.377 119.375 134.24 119.863 134.24C120.352 134.24 120.691 134.377 120.882 134.649C121.078 134.907 121.093 135.266 120.926 135.725C120.764 136.17 120.488 136.528 120.099 136.801C119.71 137.073 119.271 137.21 118.783 137.21ZM116.229 144.224C114.963 144.224 114.041 143.987 113.466 143.514C112.895 143.026 112.64 142.237 112.701 141.147C112.762 140.057 113.122 138.608 113.779 136.801L114.249 135.51C114.912 133.688 115.608 132.239 116.335 131.164C117.068 130.073 117.894 129.292 118.814 128.818C119.74 128.331 120.836 128.087 122.103 128.087C123.355 128.087 124.266 128.331 124.836 128.818C125.427 129.292 125.692 130.073 125.631 131.164C125.576 132.239 125.216 133.688 124.553 135.51L124.083 136.801C123.425 138.608 122.73 140.057 121.998 141.147C121.265 142.237 120.428 143.026 119.487 143.514C118.567 143.987 117.481 144.224 116.229 144.224ZM117.201 141.556C117.72 141.556 118.156 141.427 118.509 141.169C118.863 140.911 119.213 140.43 119.561 139.727C119.929 139.01 120.363 137.963 120.864 136.586L121.178 135.725C121.679 134.348 122.004 133.308 122.153 132.605C122.322 131.888 122.324 131.4 122.159 131.142C121.993 130.884 121.651 130.755 121.132 130.755C120.628 130.755 120.192 130.884 119.823 131.142C119.47 131.4 119.109 131.888 118.741 132.605C118.394 133.308 117.969 134.348 117.468 135.725L117.155 136.586C116.654 137.963 116.318 139.01 116.149 139.727C116 140.43 116.008 140.911 116.174 141.169C116.355 141.427 116.697 141.556 117.201 141.556Z" fill="#424242"/>
<path d="M104.781 144.224C103.499 144.224 102.544 144.016 101.917 143.6C101.305 143.184 100.996 142.503 100.989 141.556C100.998 140.609 101.29 139.347 101.864 137.769C102.673 135.546 103.639 133.731 104.761 132.326C105.889 130.905 107.219 129.851 108.752 129.163C110.284 128.474 112.064 128.115 114.089 128.087L113.118 130.755C112.202 130.755 111.325 130.898 110.488 131.185C109.656 131.458 108.93 131.838 108.31 132.326C107.69 132.813 107.229 133.387 106.928 134.047H107.02C107.525 133.832 107.985 133.681 108.398 133.595C108.811 133.509 109.238 133.466 109.681 133.466C111.147 133.466 112.069 133.889 112.448 134.735C112.847 135.567 112.726 136.865 112.083 138.63C111.358 140.624 110.423 142.058 109.281 142.933C108.158 143.794 106.658 144.224 104.781 144.224ZM105.744 141.642C106.43 141.642 107.018 141.413 107.505 140.954C107.998 140.48 108.422 139.756 108.777 138.78C109.132 137.805 109.233 137.088 109.079 136.629C108.931 136.155 108.514 135.919 107.827 135.919C107.14 135.919 106.55 136.155 106.057 136.629C105.569 137.088 105.148 137.805 104.793 138.78C104.438 139.756 104.335 140.48 104.483 140.954C104.636 141.413 105.057 141.642 105.744 141.642Z" fill="#424242"/>
<path d="M93.5022 144.009L97.9269 131.852H97.8811L91.5793 135.704L92.8636 132.175L99.2191 128.302H102.516L96.7994 144.009H93.5022Z" fill="#424242"/>
<path d="M385.641 199.83C385.88 199.175 386.639 198.643 387.336 198.643H398.074C398.772 198.643 399.144 199.175 398.906 199.83L396.154 207.391C395.987 207.848 395.555 208.265 395.044 208.462L388.8 210.865C388.401 211.019 388.002 211.019 387.714 210.865L383.219 208.462C382.851 208.265 382.723 207.848 382.889 207.391L385.641 199.83Z" fill="#424242"/>
<path d="M405.854 199.83C406.092 199.175 406.851 198.643 407.549 198.643H410.707C411.405 198.643 411.777 199.175 411.539 199.83L410.674 202.205C410.436 202.86 409.677 203.392 408.979 203.392H405.821C405.123 203.392 404.751 202.86 404.99 202.205L405.854 199.83Z" fill="#424242"/>
<path d="M418.487 199.83C418.725 199.175 419.484 198.643 420.182 198.643H430.92C431.618 198.643 431.99 199.175 431.751 199.83L429.159 206.953C428.92 207.609 428.161 208.14 427.464 208.14H416.726C416.028 208.14 415.656 207.609 415.894 206.953L418.487 199.83Z" fill="#424242"/>
<path d="M381.104 212.295C381.343 211.639 382.102 211.108 382.8 211.108H393.538C394.235 211.108 394.608 211.639 394.369 212.295L391.776 219.418C391.538 220.073 390.779 220.605 390.081 220.605H379.343C378.645 220.605 378.273 220.073 378.512 219.418L381.104 212.295Z" fill="#424242"/>
<path d="M399.255 207.546C399.494 206.891 400.253 206.359 400.951 206.359H411.689C412.386 206.359 412.759 206.891 412.52 207.546L406.471 224.166C406.232 224.822 405.473 225.353 404.776 225.353H394.038C393.34 225.353 392.968 224.822 393.206 224.166L399.255 207.546Z" fill="#424242"/>
<path d="M413.95 212.295C414.189 211.639 414.948 211.108 415.645 211.108H426.383C427.081 211.108 427.453 211.639 427.215 212.295L424.622 219.418C424.383 220.073 423.624 220.605 422.927 220.605H412.189C411.491 220.605 411.119 220.073 411.358 219.418L413.95 212.295Z" fill="#424242"/>
<path d="M376.568 224.76C376.806 224.104 377.565 223.572 378.263 223.572H389.001C389.699 223.572 390.071 224.104 389.832 224.76L387.24 231.882C387.001 232.538 386.242 233.069 385.544 233.069H374.806C374.109 233.069 373.736 232.538 373.975 231.882L376.568 224.76Z" fill="#424242"/>
<path d="M395.052 229.508C395.291 228.852 396.05 228.321 396.747 228.321H399.906C400.603 228.321 400.975 228.852 400.737 229.508L399.873 231.882C399.634 232.538 398.875 233.069 398.177 233.069H395.019C394.321 233.069 393.949 232.538 394.188 231.882L395.052 229.508Z" fill="#424242"/>
<path d="M409.572 224.322C409.739 223.864 410.171 223.447 410.683 223.25L416.926 220.848C417.326 220.694 417.725 220.694 418.012 220.848L422.507 223.25C422.875 223.447 423.004 223.864 422.837 224.322L420.085 231.882C419.847 232.538 419.088 233.069 418.39 233.069H407.652C406.954 233.069 406.582 232.538 406.821 231.882L409.572 224.322Z" fill="#424242"/>
<defs>
<linearGradient id="paint0_linear_1_149" x1="123.702" y1="13.6031" x2="276.902" y2="253.278" gradientUnits="userSpaceOnUse">
<stop stop-color="white"/>
<stop offset="1" stop-color="white" stop-opacity="0.55"/>
</linearGradient>
</defs>
</svg>
