<svg width="32" height="33" viewBox="0 0 32 33" fill="none" xmlns="http://www.w3.org/2000/svg">
<path d="M27.75 16.1999C27.8881 16.1999 28.0003 16.3119 27.9974 16.4499C27.9531 18.5762 27.3444 20.6541 26.2317 22.4699C25.0754 24.3569 23.4198 25.8873 21.4479 26.892C19.476 27.8967 17.2647 28.3366 15.0585 28.163C12.8523 27.9893 10.737 27.209 8.94658 25.9081C7.15617 24.6073 5.76036 22.8368 4.91345 20.7921C4.06655 18.7475 3.80154 16.5086 4.14774 14.3227C4.49394 12.1369 5.43786 10.0894 6.87513 8.40657C8.25824 6.78716 10.0464 5.56616 12.0548 4.867C12.1852 4.82161 12.3264 4.89372 12.3691 5.02503L15.4948 14.6452C15.7961 15.5723 16.66 16.1999 17.6347 16.1999H27.75Z" fill="white"/>
<path fill-rule="evenodd" clip-rule="evenodd" d="M11.818 5.75618C10.1316 6.43146 8.63005 7.50671 7.44544 8.89371C6.09799 10.4714 5.21307 12.3909 4.88851 14.4401C4.56395 16.4893 4.81239 18.5884 5.60636 20.5052C6.40033 22.422 7.70891 24.0819 9.38742 25.3014C11.0659 26.521 13.049 27.2525 15.1173 27.4153C17.1857 27.5781 19.2588 27.1657 21.1074 26.2238C22.956 25.2819 24.5082 23.8471 25.5922 22.0781C26.5453 20.5229 27.1039 18.7626 27.225 16.95H17.6347C16.335 16.95 15.1832 16.1131 14.7816 14.8771L11.818 5.75618ZM11.8083 4.15875C12.3452 3.97183 12.913 4.27199 13.0823 4.79333L16.2081 14.4135C16.409 15.0316 16.9849 15.45 17.6347 15.45H27.75C28.2982 15.45 28.7591 15.8972 28.7472 16.4656C28.7002 18.7247 28.0535 20.9325 26.8712 22.8619C25.6426 24.8667 23.8835 26.4928 21.7884 27.5603C19.6933 28.6278 17.3438 29.0952 14.9997 28.9107C12.6555 28.7262 10.4081 27.8971 8.50574 26.515C6.60343 25.1329 5.12038 23.2516 4.22054 21.0792C3.32071 18.9068 3.03914 16.5279 3.40698 14.2055C3.77482 11.883 4.77773 9.70755 6.30483 7.91954C7.77438 6.19892 9.67427 4.90161 11.8083 4.15875Z" fill="white"/>
<path d="M17.1444 4.79668C17.1018 4.66536 17.1735 4.52389 17.3062 4.48572C18.3363 4.18944 19.4199 4.12229 20.4805 4.29028C21.6235 4.47132 22.7075 4.9203 23.6437 5.60053C24.58 6.28076 25.342 7.17292 25.8674 8.20406C26.3549 9.16088 26.6259 10.2122 26.6624 11.2834C26.6671 11.4214 26.5547 11.5333 26.4166 11.5333L20.2415 11.5333C19.7 11.5333 19.22 11.1846 19.0527 10.6696L17.1444 4.79668Z" fill="white"/>
<path fill-rule="evenodd" clip-rule="evenodd" d="M16.4312 5.02844C16.2627 4.50981 16.5424 3.92502 17.0989 3.76494C18.2344 3.43836 19.4287 3.36434 20.5978 3.54951C21.8578 3.74906 23.0526 4.24397 24.0846 4.99377C25.1166 5.74357 25.9565 6.72697 26.5356 7.86357C27.073 8.91824 27.3717 10.077 27.412 11.2578C27.4317 11.8366 26.962 12.2833 26.4167 12.2833L20.2415 12.2833C19.3751 12.2833 18.6071 11.7254 18.3394 10.9014L16.4312 5.02844ZM18.0255 5.0812L19.766 10.4378C19.8329 10.6438 20.0249 10.7833 20.2415 10.7833L25.8738 10.7833C25.7845 10.0048 25.5567 9.24636 25.1991 8.54455C24.7275 7.61887 24.0434 6.81796 23.2029 6.2073C22.3624 5.59664 21.3893 5.19357 20.3632 5.03104C19.5852 4.90783 18.7935 4.92553 18.0255 5.0812Z" fill="white"/>
</svg>
