<svg width="32" height="33" viewBox="0 0 32 33" fill="none" xmlns="http://www.w3.org/2000/svg">
<path d="M14.5466 6.44188C15.3791 5.54443 15.7954 5.09571 16.1334 5.04018C16.2665 5.01832 16.329 5.01846 16.462 5.04091C16.7998 5.09793 17.2157 5.55027 18.0475 6.45494C18.8973 7.37924 19.9766 8.31425 21.0958 8.6651C21.9976 8.94777 23.219 8.94331 24.2027 8.87047C24.964 8.8141 25.3447 8.78591 25.6088 8.93568C25.6967 8.98548 25.7708 9.04334 25.8403 9.11652C26.0496 9.33659 26.1064 9.66633 26.22 10.3258C26.6253 12.6791 27.1135 17.0106 25.8861 19.8279C24.755 22.4238 21.6861 24.8387 19.3235 26.4012C18.2123 27.1361 17.6567 27.5035 16.7458 27.6251C16.5054 27.6571 16.0861 27.6654 15.8446 27.6429C14.9297 27.5574 14.3591 27.2117 13.2179 26.5201C10.6876 24.987 7.33454 22.5501 6.12637 19.8279C4.88134 17.0227 5.37378 12.6974 5.78517 10.3391C5.90123 9.67375 5.95927 9.34109 6.17238 9.12044C6.24293 9.04739 6.31889 8.98917 6.40776 8.94003C6.67622 8.79158 7.05775 8.82609 7.82081 8.8951C8.96118 8.99823 10.446 9.02699 11.5154 8.6651C12.6217 8.2907 13.6964 7.35835 14.5466 6.44188Z" fill="white"/>
<path fill-rule="evenodd" clip-rule="evenodd" d="M16.2833 5.77591C16.268 5.78573 16.1926 5.83002 16.0343 5.97622C15.8104 6.18309 15.5215 6.49367 15.0964 6.95196C14.2269 7.88928 13.0465 8.93871 11.7558 9.37552C10.5252 9.79197 8.90202 9.74595 7.75326 9.64205C7.35671 9.60619 7.11291 9.58496 6.93316 9.58601C6.82411 9.58664 6.77762 9.59631 6.76467 9.59978M6.71218 9.64112C6.70588 9.6507 6.6879 9.68409 6.66327 9.76991C6.62127 9.91627 6.58483 10.1193 6.52401 10.468C6.32223 11.6247 6.10286 13.2523 6.08456 14.9241C6.0661 16.6106 6.25388 18.2664 6.81188 19.5236C7.35188 20.7403 8.39937 21.9447 9.6699 23.0552C10.9314 24.1578 12.3628 25.1251 13.6065 25.8787C14.7722 26.5851 15.1984 26.8292 15.9144 26.8961C16.0996 26.9134 16.4622 26.9063 16.6466 26.8817C17.3594 26.7865 17.7748 26.5262 18.9098 25.7756C20.0707 25.0079 21.3918 24.0391 22.5549 22.9537C23.726 21.8609 24.692 20.6908 25.1985 19.5283C25.7497 18.2632 25.9342 16.6008 25.9154 14.9112C25.8967 13.2361 25.6797 11.6076 25.4809 10.4531C25.4213 10.1075 25.3857 9.90625 25.3445 9.76101C25.3203 9.6757 25.3026 9.64243 25.2964 9.63291M6.71219 9.6411C6.71378 9.6387 6.71462 9.6378 6.71465 9.63795C6.71467 9.63811 6.71388 9.63931 6.71219 9.6411ZM6.76068 9.601C6.76066 9.60099 6.76109 9.60082 6.76203 9.60053L6.76068 9.601ZM16.2833 5.77591C16.289 5.77512 16.2932 5.77461 16.2961 5.77428C16.2989 5.77461 16.303 5.77513 16.3086 5.77594C16.3238 5.78585 16.3994 5.8307 16.558 5.97857C16.7819 6.18739 17.0707 6.50066 17.4954 6.96257C18.3648 7.90823 19.5557 8.9683 20.8715 9.38076C21.9182 9.70887 23.2619 9.69218 24.2581 9.61842C24.6536 9.58914 24.8973 9.57189 25.0767 9.57561C25.1859 9.57788 25.2324 9.58817 25.2452 9.59176M25.2491 9.59299C25.2491 9.593 25.2487 9.59288 25.2481 9.59261L25.2491 9.59299ZM16.0118 4.3001C16.2265 4.26483 16.3723 4.26516 16.5868 4.30137C16.9971 4.37063 17.3296 4.64718 17.581 4.88155C17.8524 5.13466 18.1804 5.49139 18.5776 5.92339L18.5996 5.94731C19.4298 6.85024 20.3975 7.6602 21.3202 7.94944C22.077 8.18666 23.176 8.19444 24.1474 8.12252L24.1799 8.1201C24.5326 8.09396 24.8484 8.07056 25.1077 8.07593C25.381 8.0816 25.6882 8.11854 25.9787 8.28324C26.1308 8.36946 26.2634 8.47302 26.3838 8.59971C26.604 8.8312 26.7152 9.09664 26.7876 9.35177C26.8531 9.58294 26.9016 9.86423 26.9535 10.1658L26.9591 10.1985C27.1656 11.3973 27.3954 13.1112 27.4153 14.8945C27.435 16.6633 27.2499 18.5753 26.5736 20.1275C25.9491 21.5609 24.8151 22.8962 23.5783 24.0504C22.3335 25.212 20.9389 26.232 19.7372 27.0267C19.7115 27.0437 19.6861 27.0606 19.6608 27.0773C18.6166 27.7682 17.9277 28.224 16.845 28.3685C16.5486 28.408 16.0726 28.4174 15.7749 28.3896C14.6873 28.288 13.98 27.8592 12.9078 27.2093C12.8818 27.1935 12.8556 27.1776 12.8292 27.1616C11.5426 26.382 10.0324 25.3642 8.68274 24.1846C7.34214 23.0128 6.10902 21.6376 5.44085 20.1321C4.75382 18.5842 4.5653 16.6747 4.58465 14.9077C4.60416 13.126 4.83671 11.4118 5.04633 10.2102C5.04825 10.1991 5.05017 10.1881 5.05209 10.1771C5.10512 9.87295 5.1546 9.58914 5.22148 9.3561C5.29535 9.09875 5.40886 8.83138 5.63291 8.5994C5.75525 8.47274 5.89071 8.36891 6.04482 8.28369C6.33937 8.12082 6.64893 8.08763 6.92445 8.08603C7.18528 8.08452 7.50218 8.1132 7.85548 8.14517C7.8664 8.14616 7.87737 8.14715 7.88836 8.14815C9.02032 8.25052 10.3669 8.26199 11.2749 7.95468C12.1968 7.64268 13.1659 6.82742 13.9967 5.93181L14.0189 5.90793C14.4163 5.4795 14.7447 5.12549 15.0165 4.8744C15.2685 4.64159 15.6017 4.36747 16.0118 4.3001Z" fill="white"/>
</svg>
